<?xml version="1.0" encoding="UTF-8" standalone="no"?>
<!-- Created with Inkscape (http://www.inkscape.org/) -->

<svg
   width="512"
   height="512"
   viewBox="0 0 512 512"
   version="1.1"
   id="svg1"
   xml:space="preserve"
   inkscape:version="1.4 (e7c3feb100, 2024-10-09)"
   sodipodi:docname="Wivrn.svg"
   xmlns:inkscape="http://www.inkscape.org/namespaces/inkscape"
   xmlns:sodipodi="http://sodipodi.sourceforge.net/DTD/sodipodi-0.dtd"
   xmlns:xlink="http://www.w3.org/1999/xlink"
   xmlns="http://www.w3.org/2000/svg"
   xmlns:svg="http://www.w3.org/2000/svg"
   xmlns:rdf="http://www.w3.org/1999/02/22-rdf-syntax-ns#"
   xmlns:cc="http://creativecommons.org/ns#"
   xmlns:dc="http://purl.org/dc/elements/1.1/"><title
     id="title1">WiVRn Wyvern yippe</title><sodipodi:namedview
     id="namedview1"
     pagecolor="#505050"
     bordercolor="#ffffff"
     borderopacity="1"
     inkscape:showpageshadow="0"
     inkscape:pageopacity="0"
     inkscape:pagecheckerboard="1"
     inkscape:deskcolor="#505050"
     inkscape:document-units="px"
     inkscape:zoom="1.4142136"
     inkscape:cx="220.97087"
     inkscape:cy="232.28458"
     inkscape:window-width="1920"
     inkscape:window-height="1012"
     inkscape:window-x="0"
     inkscape:window-y="0"
     inkscape:window-maximized="1"
     inkscape:current-layer="g1"
     showguides="false" /><defs
     id="defs1"><linearGradient
       id="linearGradient19"
       inkscape:collect="always"><stop
         style="stop-color:#e6aa00;stop-opacity:1;"
         offset="0"
         id="stop19" /><stop
         style="stop-color:#eae69a;stop-opacity:1;"
         offset="1"
         id="stop20" /></linearGradient><linearGradient
       id="linearGradient17"
       inkscape:collect="always"><stop
         style="stop-color:#e6aa00;stop-opacity:1;"
         offset="0"
         id="stop17" /><stop
         style="stop-color:#eae69a;stop-opacity:1;"
         offset="1"
         id="stop18" /></linearGradient><linearGradient
       id="linearGradient12"
       inkscape:collect="always"><stop
         style="stop-color:#e09100;stop-opacity:1;"
         offset="0"
         id="stop12" /><stop
         style="stop-color:#eae69a;stop-opacity:1;"
         offset="1"
         id="stop15" /></linearGradient><linearGradient
       id="linearGradient4"
       inkscape:collect="always"><stop
         style="stop-color:#001b42;stop-opacity:1;"
         offset="0"
         id="stop4" /><stop
         style="stop-color:#000308;stop-opacity:1;"
         offset="1"
         id="stop5" /></linearGradient><linearGradient
       id="linearGradient13"
       inkscape:collect="always"><stop
         style="stop-color:#054471;stop-opacity:1;"
         offset="0"
         id="stop14" /><stop
         style="stop-color:#002744;stop-opacity:1;"
         offset="1"
         id="stop13" /></linearGradient><radialGradient
       inkscape:collect="always"
       xlink:href="#linearGradient13"
       id="radialGradient14"
       cx="142.49445"
       cy="58.707878"
       fx="142.49445"
       fy="58.707878"
       r="84.191902"
       gradientTransform="matrix(-0.00442418,1.0435393,-1.2702887,-0.00538559,201.78801,-79.68357)"
       gradientUnits="userSpaceOnUse" /><linearGradient
       inkscape:collect="always"
       xlink:href="#linearGradient4"
       id="linearGradient3"
       x1="-9.9182129e-05"
       y1="255.99979"
       x2="512.00006"
       y2="255.99979"
       gradientUnits="userSpaceOnUse"
       gradientTransform="translate(-2.1362305e-4,-511.99978)" /><linearGradient
       inkscape:collect="always"
       xlink:href="#linearGradient4"
       id="linearGradient5"
       x1="-9.9182129e-05"
       y1="255.99978"
       x2="512.00009"
       y2="255.99978"
       gradientUnits="userSpaceOnUse"
       gradientTransform="translate(-2.1362305e-4,-511.99978)" /><linearGradient
       inkscape:collect="always"
       xlink:href="#linearGradient12"
       id="linearGradient15"
       x1="231.79434"
       y1="216.66031"
       x2="-107.19677"
       y2="-122.3308"
       gradientUnits="userSpaceOnUse" /><linearGradient
       inkscape:collect="always"
       xlink:href="#linearGradient17"
       id="linearGradient18"
       x1="287.30957"
       y1="58.948975"
       x2="239.39442"
       y2="11.033832"
       gradientUnits="userSpaceOnUse" /><linearGradient
       inkscape:collect="always"
       xlink:href="#linearGradient19"
       id="linearGradient20"
       x1="96.295563"
       y1="279.51785"
       x2="18.726246"
       y2="200.55717"
       gradientUnits="userSpaceOnUse" /><linearGradient
       inkscape:collect="always"
       xlink:href="#linearGradient19"
       id="linearGradient22"
       x1="513.62122"
       y1="177.14229"
       x2="399.88248"
       y2="79.645096"
       gradientUnits="userSpaceOnUse"
       gradientTransform="matrix(1.1063376,0.29644226,-0.29644226,1.1063376,-31.100051,-154.59176)" /></defs><g
     id="g28"
     inkscape:label="Night Sky"
     style="display:none"><rect
       style="opacity:1;fill:url(#linearGradient5);stroke:url(#linearGradient3);stroke-width:109.387;stroke-linecap:round;stroke-linejoin:round;stroke-dasharray:none;stroke-opacity:1;paint-order:stroke fill markers"
       id="rect1"
       width="402.61319"
       height="402.61276"
       x="54.693188"
       y="-457.30637"
       transform="rotate(90)"
       inkscape:label="Square" /><path
       sodipodi:type="star"
       style="opacity:1;fill:url(#linearGradient15);fill-opacity:1;stroke:#000000;stroke-width:25.2217;stroke-linecap:round;stroke-linejoin:round;stroke-dasharray:none;stroke-opacity:1;paint-order:stroke fill markers"
       id="path12"
       inkscape:flatsided="false"
       sodipodi:sides="5"
       sodipodi:cx="70.710678"
       sodipodi:cy="36.062447"
       sodipodi:r1="167.95982"
       sodipodi:r2="83.979897"
       sodipodi:arg1="0.48624263"
       sodipodi:arg2="1.1145612"
       inkscape:rounded="0"
       inkscape:randomized="0"
       d="M 219.20311,114.5513 107.70982,111.45267 41.950025,201.54153 10.443676,94.547585 -95.556813,59.845289 -3.5355221,-3.181977 -3.2876299,-114.71803 85.091005,-46.67708 191.2447,-80.907857 153.84441,24.171031 Z"
       inkscape:transform-center-x="3.1713839"
       inkscape:transform-center-y="2.6224884"
       transform="matrix(0.35683517,0,0,0.35683517,53.99049,62.985431)"
       inkscape:label="Star 1" /><path
       sodipodi:type="star"
       style="opacity:1;fill:url(#linearGradient20);fill-opacity:1;stroke:#000000;stroke-width:9;stroke-linecap:round;stroke-linejoin:round;stroke-dasharray:none;stroke-opacity:1;paint-order:stroke fill markers"
       id="path16"
       inkscape:flatsided="false"
       sodipodi:sides="5"
       sodipodi:cx="60.104076"
       sodipodi:cy="239.00209"
       sodipodi:r1="37.107952"
       sodipodi:r2="18.553972"
       sodipodi:arg1="0.5404195"
       sodipodi:arg2="1.168738"
       inkscape:rounded="0"
       inkscape:randomized="0"
       d="m 91.923883,258.09397 -24.559389,-2.01745 -15.585017,19.08772 -5.670558,-23.98079 -22.969535,-8.92381 21.054792,-12.80349 1.389064,-24.60293 18.683135,16.0678 23.828023,-6.28165 -9.50798,22.73394 z"
       inkscape:transform-center-x="2.5724426"
       inkscape:transform-center-y="1.0066396"
       inkscape:label="Star 2" /><path
       sodipodi:type="star"
       style="opacity:1;fill:url(#linearGradient18);fill-opacity:1;stroke:#000000;stroke-width:9;stroke-linecap:round;stroke-linejoin:round;stroke-dasharray:none;stroke-opacity:1;paint-order:stroke fill markers"
       id="path17"
       inkscape:flatsided="false"
       sodipodi:sides="5"
       sodipodi:cx="262.33661"
       sodipodi:cy="33.23402"
       sodipodi:r1="21.272047"
       sodipodi:r2="10.636023"
       sodipodi:arg1="0.26916749"
       sodipodi:arg2="0.89748602"
       inkscape:rounded="0"
       inkscape:randomized="0"
       d="m 282.84271,38.890874 -13.87372,2.657982 -5.67564,12.935685 -6.8151,-12.373325 -14.05644,-1.400506 9.66175,-10.305117 -3.01172,-13.801245 12.7864,6.004413 12.19509,-7.129133 -1.75932,14.016048 z"
       inkscape:transform-center-x="-0.29565024"
       inkscape:transform-center-y="1.7480641"
       inkscape:label="Star 3" /><path
       style="opacity:1;fill:url(#linearGradient22);fill-opacity:1;stroke:#000000;stroke-width:9;stroke-linecap:round;stroke-linejoin:round;stroke-dasharray:none;stroke-opacity:1;paint-order:stroke fill markers"
       d="m 380.70776,184.75225 c -6.12682,2.5958 78.08431,26.29978 99.99397,-55.46822 21.04184,-78.529228 -65.63535,-99.651425 -59.9966,-93.381543 23.8872,26.560922 27.24809,55.867376 20.10618,82.193633 -7.64406,28.1771 -28.65811,53.33337 -60.10355,66.65613 z"
       id="path20"
       sodipodi:nodetypes="sssss"
       inkscape:label="Moon" /></g><g
     id="g1"
     inkscape:label="WiVRn"><path
       style="display:inline;fill:#009898;stroke-width:1.08497"
       d="m 323.79955,496.68165 c -18.58364,-1.63433 -28.66063,-8.86494 -37.89524,-27.19117 -1.27359,-2.52744 -1.18479,-2.44006 -2.07771,-2.04495 -3.7743,1.67005 -13.23874,3.72282 -21.60007,4.68491 -13.41669,1.54378 -34.68406,1.02276 -50.16301,-1.22894 -13.88831,-2.02029 -23.49963,-4.87614 -32.89188,-9.77326 l -1.95401,-1.01882 -1.50434,1.56189 c -5.48991,5.69992 -13.97346,12.63245 -20.36687,16.64325 -10.81564,6.78502 -21.47317,7.67262 -31.72432,2.6421 C 102.90052,470.78802 82.982248,429.954 90.016297,412.06214 94.389203,400.93918 107.28689,393.513 131.69159,388.06652 c 3.41048,-0.76113 6.95647,-1.43312 8.29078,-1.57117 1.55188,-0.16055 1.40396,0.0583 1.74514,-2.58208 0.92575,-7.16447 2.31162,-13.51865 4.45169,-20.41105 2.44504,-7.87459 3.71039,-11.63889 4.80958,-14.30808 1.18391,-2.87492 1.17086,-2.9944 -0.31017,-2.83718 -21.77593,2.31168 -36.78988,-5.31282 -41.01552,-20.82878 -0.20315,-0.74592 -0.39339,-1.4325 -0.42277,-1.52574 -0.30372,-0.96406 -4.6158,1.57157 -6.03622,3.54946 -0.98546,1.37223 -1.33612,1.00936 -1.44237,-1.49256 -0.22123,-5.20899 1.36636,-10.21315 4.22957,-13.33182 2.84333,-3.09702 2.81902,-3.28418 -0.41606,-3.20238 -4.26797,0.10795 -7.151165,1.07389 -10.004795,3.35193 -2.342705,1.87017 -2.603978,1.63189 -1.85513,-1.69187 2.073014,-9.20106 8.043985,-14.74364 15.887245,-14.74742 1.07203,-5.2e-4 1.02539,0.0455 1.72104,-1.6957 0.29802,-0.74592 0.73065,-1.71333 0.96141,-2.14981 0.57484,-1.08731 0.5629,-1.12862 -0.66715,-2.31074 -4.0185,-3.86192 -6.35986,-5.09569 -10.33575,-5.44642 -1.906284,-0.16816 -1.795854,-0.51244 0.74252,-2.31487 7.76958,-5.51698 16.32979,-6.82329 22.91994,-3.49764 1.12208,0.56624 1.04615,0.56697 2.0111,-0.0192 0.86385,-0.52477 2.28789,-0.97897 4.39686,-1.40241 11.50988,-2.31098 25.69261,0.95429 51.60401,11.88072 0.63403,0.26737 1.65898,0.72535 2.27766,1.01775 1.35739,0.64152 1.07292,0.75252 2.68218,-1.04661 1.94252,-2.17171 7.35553,-7.54821 9.00918,-8.94841 1.8622,-1.57678 2.71244,-2.39355 2.71244,-2.60565 0,-0.21198 -0.0704,-0.22618 -2.91587,-0.58758 -14.68973,-1.86572 -30.12307,-6.38403 -41.73453,-12.21832 -0.57643,-0.28963 -1.13694,-0.5266 -1.24556,-0.5266 -1.17572,0 -6.92045,3.87456 -9.49629,6.40482 -1.62329,1.59456 -1.8396,1.54818 -1.84061,-0.39465 -10e-4,-2.07917 -0.47183,-6.29976 -1.07877,-9.67195 -0.14096,-0.78322 -0.29526,-1.91227 -0.34288,-2.509 -0.12243,-1.53427 -0.0343,-1.41195 -2.10759,-2.92329 -11.09704,-8.0891 -18.23597,-17.21228 -21.8558,-27.93062 -3.74358,-11.08474 -3.66728,-23.16182 0.20987,-33.21728 l 0.59751,-1.54965 -0.76447,-1.44552 c -0.42046,-0.79503 -0.92152,-1.71498 -1.11347,-2.04433 -0.19195,-0.32934 -1.17518,-2.03301 -2.18496,-3.78591 -1.00978,-1.75291 -2.18906,-3.7971 -2.62064,-4.54265 -0.43157,-0.74555 -1.71246,-2.97313 -2.8464,-4.95019 -1.13395,-1.97706 -2.65945,-4.63215 -3.39,-5.90021 -0.73055,-1.26806 -1.89935,-3.2973 -2.59735,-4.50942 -0.698,-1.21212 -1.8592,-3.2261 -2.580464,-4.47551 -0.72124,-1.24941 -1.675117,-2.91248 -2.119706,-3.69569 -0.444579,-0.78322 -1.589594,-2.77134 -2.544467,-4.41807 -0.954884,-1.64673 -1.871936,-3.38608 -2.037904,-3.86521 -0.165968,-0.47915 -0.417465,-1.20684 -0.558891,-1.61709 -2.766594,-8.02576 -1.658337,-15.47384 3.592095,-24.14064 2.487343,-4.10582 7.405877,-12.08988 8.689067,-14.10465 0.59385,-0.93239 2.40429,-3.80079 4.02322,-6.37421 1.61892,-2.57343 4.61893,-7.333743 6.66667,-10.578489 2.04775,-3.244746 4.93417,-7.821974 6.41427,-10.171618 4.24261,-6.735037 4.91566,-7.622868 7.02651,-9.268641 4.42209,-3.447775 9.42899,-4.885355 18.47529,-5.304612 0.8951,-0.04149 3.97709,-0.196092 6.84889,-0.343573 2.87178,-0.147483 8.02879,-0.390712 11.46002,-0.54051 3.43123,-0.149798 7.55073,-0.334291 9.15446,-0.409985 4.48748,-0.211802 8.43958,-0.386887 15.38336,-0.68151 7.20591,-0.305746 6.56109,-0.164451 7.28113,-1.595469 0.25198,-0.500793 0.79884,-1.368255 1.21524,-1.927694 4.72849,-6.35279 9.02767,-14.549824 10.75395,-20.504019 0.42518,-1.466507 0.94948,-1.2474 1.79027,0.748163 3.33723,7.920655 6.2853,17.847347 6.29892,21.209636 0.004,1.033794 -1.20026,0.999466 13.01759,0.371004 5.14644,-0.227484 11.43681,-0.494276 20.61448,-0.874318 3.61772,-0.149807 8.77472,-0.365433 11.46003,-0.47917 12.68903,-0.537447 13.62155,-0.564296 16.13897,-0.464669 8.98121,0.355432 15.52086,3.050475 19.07847,7.86239 0.40378,0.546153 0.56718,0.511044 1.01679,-0.218482 7.34063,-11.910405 25.36178,-23.035747 51.17387,-31.59216 20.30553,-6.731047 28.76724,-12.038067 33.66779,-21.115765 0.88898,-1.646755 1.44256,-1.906397 1.71133,-0.802663 1.51672,6.228751 2.31446,18.978311 1.64326,26.262961 -2.78473,30.223115 -18.86532,61.436843 -39.64561,76.955393 -2.20911,1.64974 -5.92464,4.08041 -6.97199,4.56101 -1.17797,0.54054 -1.16935,0.47411 -0.23117,1.78166 2.34446,3.26748 5.89337,9.19889 5.89337,9.84975 0,0.38563 0.57026,1.53296 2.175,4.37594 0.42478,0.75254 1.31977,2.04673 1.98888,2.87598 6.89054,8.53963 11.3721,19.26566 13.1864,31.55984 1.51779,10.28488 0.35532,22.89105 -2.66223,28.86997 -0.40138,0.7953 -0.39097,0.80698 0.97624,1.09553 10.77417,2.27393 27.5504,10.40503 38.85165,18.83062 1.29856,0.96814 1.62232,1.22603 3.86915,3.08202 5.5725,4.60317 15.79991,15.04476 15.79991,16.1308 0,0.67975 -0.63151,0.69815 -2.08016,0.0607 -9.19652,-4.04723 -20.18284,-2.41984 -27.51925,4.07639 -1.53402,1.35836 -1.45065,1.15474 -0.83737,2.0452 0.53886,0.7824 0.72759,1.41474 0.73242,2.45396 l 0.003,0.69702 1.64511,0.0988 1.64512,0.0988 0.55374,-0.66025 c 4.24614,-5.06287 9.65972,-8.78279 12.22233,-8.39849 2.28665,0.34289 3.71123,5.51363 3.42104,12.41718 l -0.0256,0.6103 1.08497,0.57174 c 1.33765,0.70489 1.2331,0.70748 2.71999,-0.0674 5.08628,-2.6505 6.47413,-3.24048 8.5366,-3.6289 5.21042,-0.98125 6.16577,1.53751 3.98864,10.51589 -0.36604,1.50952 -0.70551,2.55836 -1.04316,3.22291 -0.36121,0.71092 -0.4633,1.03887 -0.36678,1.17817 1.98042,2.85841 2.1868,3.09983 2.56818,3.00411 0.74502,-0.18698 3.41722,-0.2362 5.02474,-0.0925 7.99483,0.71449 9.26602,2.41856 5.92665,7.94478 -1.51238,2.50277 -3.17844,4.68192 -4.34177,5.67887 -1.0389,0.89032 -1.00513,0.69285 -0.55975,3.27227 1.08934,6.30898 0.84022,9.22596 -0.61827,7.2394 -3.26,-4.44037 -10.64511,-7.9026 -15.61387,-7.31997 -10.24797,1.20167 -19.25544,9.95943 -24.91169,24.2211 -2.71989,6.85793 -4.23445,12.55444 -7.21166,27.12431 -2.88007,14.09447 -6.77522,26.74464 -9.14137,29.68814 -0.0658,0.0817 -0.55699,1.18611 -1.09175,2.45418 -3.03186,7.18936 -9.24557,18.45893 -14.84169,26.91779 -0.68312,1.03258 -0.8244,0.89285 2.66177,2.63255 9.74652,4.86377 16.21796,8.86231 21.73336,13.42846 11.72992,9.71109 16.46481,23.27272 12.95504,37.10574 -1.8323,7.22166 -5.27328,13.35711 -11.67866,20.82368 -13.40602,15.62701 -40.99626,26.66226 -62.03485,24.81202 z M 308.70399,338.60234 c 0.24663,-0.30569 0.71957,-0.87022 1.05098,-1.2545 0.67865,-0.78692 3.9967,-4.95595 4.44188,-5.58107 0.15936,-0.22377 0.56952,-0.70523 0.91147,-1.06989 0.89632,-0.95584 0.87651,-0.99992 -1.61436,-3.59309 -5.06529,-5.27333 -11.01495,-8.83137 -14.7676,-8.83137 -1.32875,0 -1.34839,-0.14195 0.4386,3.17019 2.95253,5.47242 3.67725,6.8424 4.68664,8.85932 0.5658,1.13057 1.02874,2.0829 1.02874,2.11627 0,0.0334 0.33566,0.76959 0.74592,1.63605 0.41025,0.86646 0.74592,1.5999 0.74592,1.62987 0,0.21199 1.64187,3.47403 1.74858,3.47403 0.0741,0 0.33659,-0.25012 0.58323,-0.55581 z m -23.70728,-54.10466 c 14.94068,-2.51251 26.1998,-6.69683 34.25535,-12.73062 1.74148,-1.30441 5.12791,-4.61308 5.77163,-5.63911 0.64929,-1.03493 1.04136,-10.15789 0.52495,-12.21539 -0.15106,-0.60186 -0.28323,-0.52623 -3.50933,2.00823 -5.52316,4.33906 -13.29565,8.96756 -19.39673,11.55071 -6.34496,2.6864 -10.68454,4.13894 -17.6308,5.90133 l -3.52616,0.89466 0.0381,1.4897 c 0.0911,3.56108 0.68509,8.43216 1.07575,8.82282 0.25267,0.25267 0.44427,0.24608 2.3972,-0.0824 z"
       id="path1"
       inkscape:label="Body" /><path
       style="display:inline;fill:#e7eef4;stroke-width:1.08497"
       d="m 256.62618,420.63959 c -0.0895,-0.0895 -0.16274,-0.44509 -0.16274,-0.79017 0,-3.99313 -1.62503,-10.45299 -4.11355,-16.35233 -3.33855,-7.91443 -0.19314,-11.56124 9.71943,-11.26879 11.23762,0.33155 13.79384,6.16896 7.30925,16.69151 -2.25914,3.66591 -5.94019,7.90394 -7.05965,8.12784 -0.33129,0.0663 -0.48969,0.19995 -0.62971,0.53148 -0.49451,1.17087 -4.51958,3.60391 -5.06303,3.06046 z m -25.96422,-1.991 c -3.25581,-3.86931 -5.83152,-14.22701 -5.26527,-21.17316 0.74678,-9.16081 4.1586,-12.04127 12.1317,-10.2423 12.10737,2.73179 12.8109,8.79877 2.59523,22.38043 -5.25953,6.99249 -8.54247,10.12741 -9.46166,9.03503 z M 211.9,405.31229 c -8.15327,-8.33103 -8.24326,-28.1801 -0.12775,-28.1801 3.53552,0 8.8173,3.68495 10.73229,7.4876 1.44831,2.87597 1.20921,4.42594 -1.15277,7.47271 -3.39751,4.38253 -5.80955,8.82485 -7.19378,13.24898 -0.50583,1.61668 -0.64905,1.61484 -2.25799,-0.0292 z M 101.97317,328.08415 c -1.70458,-2.05389 1.89116,-15.07346 4.23814,-15.34564 0.47765,-0.0554 0.48337,-0.0321 0.73407,2.99129 0.11905,1.43575 0.39556,3.6773 0.61444,4.98124 0.54576,3.25111 0.55268,3.16552 -0.29035,3.58895 -1.47401,0.74035 -3.05708,2.03275 -4.28701,3.49985 -0.46592,0.55577 -0.72374,0.62838 -1.00929,0.28431 z m -8.572084,-14.10641 c -0.187245,-0.18724 -0.07432,-1.25382 0.308088,-2.9094 1.945899,-8.42486 6.467176,-13.1342 13.867766,-14.4446 1.98584,-0.35163 1.99098,-0.34177 1.20725,2.31283 -0.66145,2.24039 -1.2831,5.32337 -1.64206,8.14353 -0.32888,2.58377 -0.21593,2.44023 -1.93733,2.46201 -4.04786,0.0512 -6.865375,1.12389 -10.470099,3.98623 -0.630803,0.50089 -1.117966,0.66505 -1.333615,0.4494 z m 23.711184,-20.11989 c -1.76199,-0.35272 -2.9278,-1.11535 -5.64754,-3.69436 -3.96264,-3.75763 -5.92092,-4.80906 -9.80011,-5.26185 -2.287784,-0.26703 -2.322514,-0.47797 -0.31836,-1.93387 9.00539,-6.54184 19.28263,-7.63212 25.59857,-2.71567 6.6597,5.18404 -0.74163,15.4256 -9.83256,13.60575 z M 116.2831,189.735 c -0.15776,-0.10405 -0.9454,-1.46254 -12.04934,-20.78193 -1.47909,-2.57343 -3.12958,-5.44182 -3.66776,-6.37422 -0.53817,-0.9324 -1.820454,-3.15998 -2.849512,-4.95018 -1.029064,-1.79021 -2.419641,-4.20089 -3.090175,-5.35706 -2.408303,-4.15254 -3.488361,-8.44274 -3.482556,-13.8334 0.0065,-5.74504 0.89635,-8.38706 5.267661,-15.6346 3.632352,-6.02235 7.337812,-11.97151 15.223592,-24.441579 0.99057,-1.566429 3.0305,-4.801004 4.53318,-7.187943 6.44846,-10.243074 8.91483,-14.121454 9.47622,-14.901413 3.32405,-4.618187 8.81458,-7.411562 16.2866,-8.286004 2.30501,-0.269751 10.75861,-0.731875 24.88656,-1.360445 13.12759,-0.584061 16.63433,-0.739561 21.3604,-0.947187 2.53613,-0.111417 5.58761,-0.203637 6.78108,-0.204933 1.19347,-0.0013 2.54854,-0.0638 3.01126,-0.138896 0.46271,-0.07509 3.08699,-0.194415 5.83172,-0.265151 6.8162,-0.175665 11.89872,-0.38107 13.60239,-0.549726 0.78321,-0.07753 5.02478,-0.291526 9.4257,-0.475534 4.40092,-0.184008 10.13771,-0.425542 12.74843,-0.536742 2.61071,-0.111199 7.70669,-0.325196 11.3244,-0.475548 7.2176,-0.299964 13.93585,-0.582708 20.81791,-0.876142 12.89772,-0.549927 19.96266,1.263846 24.89946,6.392403 2.59808,2.698993 10.01778,15.58352 25.46515,44.22092 1.19279,2.21131 1.1922,2.16051 0.0527,4.44817 -1.14285,2.29443 -0.98868,2.24211 -3.38718,1.14925 -7.90949,-3.60391 -7.43472,-3.64732 -9.82581,0.89827 -2.45996,4.67654 -5.75579,10.92755 -12.18248,23.10586 -2.93257,5.55709 -5.54194,10.54479 -5.7986,11.08379 l -0.46667,0.97999 0.5137,0.91871 c 0.28254,0.50529 1.75333,3.08441 3.26843,5.73138 3.29842,5.76256 3.26623,4.45169 0.25436,10.35698 -1.3752,2.69629 -3.38236,6.63432 -4.46036,8.75116 -1.07801,2.11686 -2.05859,3.96396 -2.17908,4.10467 -0.21452,0.25054 -18.78359,0.27599 -39.00587,0.0535 -9.09952,-0.10014 -10.79079,-0.7629 -16.67282,-6.53359 -4.33874,-4.25662 -5.25241,-4.96768 -7.74731,-6.02936 -2.61186,-1.11145 -3.53007,-1.20431 -9.48527,-0.95938 -4.17148,0.17158 -36.90047,1.32592 -40.21179,1.41826 -4.40798,0.12291 -7.70597,2.02941 -12.00251,6.93837 -6.12501,6.99805 -8.14287,8.06001 -16.37886,8.61985 -1.09883,0.0746 -2.54713,0.19701 -3.21846,0.27181 -0.67133,0.0748 -4.54672,0.35057 -8.61197,0.61283 -4.06526,0.26224 -9.62037,0.62798 -12.34469,0.81274 -5.41949,0.36752 -5.69044,0.37815 -5.91185,0.23212 z m 0.69354,-56.64819 c 3.87878,-0.18903 10.92771,-0.52665 15.6643,-0.75025 17.3785,-0.82043 39.94629,-1.88858 50.24779,-2.3783 3.87878,-0.18439 10.9277,-0.51808 15.66429,-0.74154 15.83551,-0.74708 25.6409,-1.21139 32.95605,-1.56051 3.99066,-0.19047 8.5984,-0.40282 10.23942,-0.47191 4.89707,-0.20614 7.60029,-1.00928 10.95625,-3.25514 2.99169,-2.00209 3.41779,-2.65075 9.04405,-13.76805 1.81198,-3.58041 3.9813,-7.85248 4.82071,-9.49351 1.41795,-2.772053 8.21188,-16.146048 12.0911,-23.801589 4.93661,-9.742283 2.49858,-12.038672 -12.09336,-11.390759 -3.35663,0.149041 -8.17798,0.36268 -10.7141,0.474751 -2.53612,0.112072 -5.89276,0.264623 -7.45919,0.339001 -1.56643,0.07437 -5.62491,0.25747 -9.01883,0.406872 -7.49576,0.329966 -13.298,0.587127 -21.3604,0.946712 -8.34065,0.371995 -23.86831,1.059563 -27.6668,1.225092 -1.71562,0.07476 -5.10277,0.225975 -7.527,0.33603 -9.47689,0.430227 -21.15599,0.949481 -30.51486,1.356693 -7.48609,0.325726 -9.65467,0.46101 -10.93525,0.682179 -4.63883,0.801171 -8.0465,2.651216 -11.85687,6.437159 -2.03259,2.019566 -1.63441,1.447718 -6.23269,8.951024 -4.89013,7.979512 -10.21791,16.658065 -16.48519,26.853075 -2.82005,4.58741 -5.41237,8.80884 -5.7607,9.38099 -2.944068,4.83559 -2.845607,7.91629 0.31071,9.72215 1.93124,1.10494 2.70608,1.12973 15.63057,0.49983 z"
       id="path2"
       inkscape:label="White" /><path
       style="display:inline;fill:#222b31;stroke-width:1.08497"
       d="m 359.65864,202.93607 c -0.10719,-0.10719 -2.62054,-0.51021 -3.82457,-0.61319 l -1.19277,-0.10199 -0.70482,-0.80008 c -8.21292,-9.3229 -20.99309,-19.22388 -33.93434,-26.28944 -7.0247,-3.8353 -16.5006,-8.11834 -20.5425,-9.28508 -1.7159,-0.49531 -1.30931,-0.001 -4.29299,-5.2182 -2.52897,-4.42203 -2.47396,-4.29292 -2.98239,-7.00023 -0.067,-0.35674 18.66949,-36.11753 19.22082,-36.68521 0.2626,-0.27038 0.26541,-0.27001 1.71761,0.22422 2.04737,0.69678 8.8357,3.67055 9.38845,4.11282 0.11189,0.0895 0.81373,0.48591 1.55965,0.88087 13.92642,7.37409 25.03759,17.37826 31.33416,28.21238 8.00007,13.76519 10.97297,33.92031 7.10489,48.16834 -0.22949,0.84534 -0.46467,1.90668 -0.52263,2.35854 -0.1734,1.35181 -1.68829,2.67656 -2.32857,2.03628 z"
       id="path3"
       inkscape:label="Headset Strap" /><path
       style="display:inline;fill:#fd6900;stroke-width:1.08497"
       d="m 357.93133,342.85384 c -0.0673,-0.13054 -0.26076,-0.66455 -0.43009,-1.18669 -3.42606,-10.564 -9.79142,-20.72194 -15.35102,-24.49739 -7.79412,-5.29288 -16.07383,-1.57816 -23.08061,10.35518 -0.42584,0.72526 -0.8965,1.40428 -1.04591,1.50894 -0.14943,0.1047 -0.45064,0.47247 -0.66937,0.81738 -0.57026,0.8992 -1.31651,0.58916 -2.00417,-0.83265 -0.15282,-0.31596 -0.37878,-0.52713 -0.67112,-0.62718 -0.28505,-0.0975 -0.95573,-0.71067 -1.8987,-1.73575 -4.18092,-4.54497 -10.06936,-8.24763 -13.11645,-8.24763 -1.04837,0 -0.96932,0.1109 -4.44656,-6.2386 -5.9262,-10.82133 -12.30181,-26.44371 -11.17388,-27.3798 0.10145,-0.0842 0.87958,-0.27625 1.72918,-0.42678 17.80072,-3.15389 31.55969,-9.17263 37.34964,-16.33824 0.54244,-0.67133 1.20781,-1.43206 1.47859,-1.69051 1.24551,-1.18879 1.45873,-8.27594 0.61843,-20.55527 -0.1937,-2.83042 -0.2431,-2.67678 1.18565,-3.68728 4.41196,-3.12043 10.57244,-9.4307 14.05269,-14.3944 4.04823,-5.77376 9.78707,-16.76915 11.76077,-22.53314 0.62334,-1.82043 1.24631,-2.04415 4.55364,-1.63538 10.79025,1.33366 23.12587,6.42488 37.93056,15.65492 8.0482,5.01767 18.21033,14.01765 24.89785,22.05049 1.33503,1.60358 0.93677,2.44326 -0.75323,1.58811 -10.65901,-5.39358 -24.16727,-2.09369 -31.86563,7.78434 -3.9669,5.09009 -7.73913,15.37652 -8.52614,23.24985 -0.17646,1.76531 -0.26203,1.7427 -2.73221,-0.72236 -10.68126,-10.65906 -23.06151,-11.03894 -37.53559,-1.15176 -2.22017,1.5166 -2.18829,1.4632 -1.41556,2.37143 0.33846,0.3978 0.69395,0.87585 0.78997,1.06234 0.096,0.18647 0.67705,1.01038 1.29116,1.83089 8.84629,11.81944 16.17143,29.47497 18.9107,45.57984 1.36802,8.04292 1.73555,20.26443 0.60939,20.26443 -0.17588,0 -0.37476,-0.10676 -0.44198,-0.23733 z M 142.56458,271.92375 c -0.067,-0.13053 -0.16224,-1.12227 -0.21157,-2.20385 -0.11922,-2.61402 -0.27182,-3.96597 -0.85316,-7.5583 -0.65239,-4.03133 -0.69444,-3.97875 1.88143,-2.35252 1.89466,1.19617 5.25022,3.16101 7.05167,4.12909 1.83383,0.98548 1.81207,1.07953 -0.62929,2.72103 -2.33548,1.57031 -4.35956,3.16672 -5.64312,4.45082 -1.07433,1.07476 -1.38147,1.23137 -1.59596,0.81373 z m 197.4744,-148.23438 c -0.14775,-0.13054 -0.82035,-0.9697 -1.49466,-1.8648 -5.60416,-7.43903 -11.59261,-13.44726 -20.97311,-21.04235 l -1.48159,-1.199595 -2.02138,-3.661782 c -4.32123,-7.828045 -5.10472,-9.232495 -7.60357,-13.629969 -2.32373,-4.089296 -5.86609,-10.101053 -6.98808,-11.859535 -0.58998,-0.924648 -0.57858,-0.964151 0.75871,-2.631213 6.46141,-8.054744 14.86103,-14.488917 26.75136,-20.491732 7.3007,-3.685753 11.00237,-5.149864 24.50548,-9.692611 19.51821,-6.566359 27.9075,-12.038224 32.50792,-21.20309 0.8261,-1.645733 1.23761,-1.439324 1.68995,0.847635 7.36054,37.213985 -11.52016,84.431362 -41.88156,104.738562 -3.0239,2.02254 -3.26913,2.13252 -3.76947,1.69048 z M 201.10079,64.72904 c -4.24772,-0.206975 -4.26246,-0.215569 -3.07001,-1.790963 4.79138,-6.3301 8.56149,-13.171129 10.81562,-19.625411 1.30065,-3.724161 1.3383,-3.717551 3.04172,0.533933 3.05711,7.630128 4.55913,12.636004 5.45806,18.190553 0.43686,2.699362 0.68201,2.435883 -2.36869,2.545815 -1.3132,0.04733 -3.67209,0.145058 -5.24198,0.217192 -3.34154,0.15354 -4.16294,0.146774 -8.63472,-0.07112 z"
       id="path4"
       inkscape:label="Orange Bits" /><path
       style="display:inline;fill:#fdc34c;stroke-width:1.08497"
       d="m 237.06955,472.92126 c -17.05686,-0.40903 -34.21048,-2.81922 -44.6195,-6.26933 -27.85583,-9.2329 -44.28258,-27.64108 -49.98854,-56.01831 -2.78989,-13.87488 -1.48947,-30.36103 3.71769,-47.1314 2.54349,-8.19163 3.83699,-12.01861 4.83606,-14.30808 0.27668,-0.63403 0.58577,-1.46471 0.68687,-1.84595 1.18103,-4.45373 8.41247,-19.45696 13.31139,-27.61746 8.19807,-13.65611 22.48801,-31.14803 32.41898,-39.68316 2.82685,-2.42954 2.86199,-2.22018 -0.44728,-2.66488 -36.61077,-4.91969 -66.89553,-22.07507 -77.57097,-43.94156 -6.08718,-12.46837 -6.8713,-27.7297 -2.03183,-39.54562 1.32886,-3.24449 1.05207,-3.03479 4.27317,-3.23741 6.75021,-0.42463 23.24045,-1.50967 24.95437,-1.64198 7.46938,-0.57662 10.83795,-2.19526 15.39837,-7.39908 4.19328,-4.78488 5.79778,-6.1821 8.34135,-7.26371 2.10762,-0.89624 1.91135,-0.88014 17.08237,-1.4018 7.64566,-0.2629 18.2038,-0.63261 23.46254,-0.82158 10.30704,-0.37037 10.33844,-0.36963 12.31353,0.29147 2.76662,0.92604 3.72589,1.64275 8.71103,6.50837 4.96942,4.85028 6.59195,5.67955 12.57809,6.42864 2.72419,0.34091 43.02816,0.43734 43.70164,0.10459 0.23694,-0.11707 0.62499,-0.72911 1.28841,-2.03208 1.10902,-2.17812 0.92185,-2.10708 2.52922,-0.96012 22.18821,15.83256 29.66933,48.81738 18.00123,79.36887 -1.03483,2.70956 -0.94233,2.59318 -2.80156,3.52508 -12.04538,6.03742 -26.33629,9.84973 -45.53131,12.14614 -2.74031,0.32784 -8.0648,0.88879 -8.43632,0.88879 -0.29789,0 -0.73051,0.83654 -0.64327,1.24384 0.0533,0.24877 -0.024,0.52499 -0.24646,0.88154 -1.25125,2.00476 -3.12547,7.83374 -4.70209,14.62389 l -0.50383,2.16994 h -0.41964 c -1.0844,0 -10.20462,9.06217 -16.53477,16.42953 -9.83447,11.44585 -13.91972,17.57249 -19.20404,28.80027 -5.43364,11.54503 -6.67848,24.13675 -3.27748,33.15212 0.58508,1.55092 0.60357,1.40889 -0.31524,2.42276 -3.77842,4.16935 -3.63698,14.30631 0.31072,22.26772 1.90699,3.84587 5.94296,8.19229 6.39118,6.8828 1.72326,-5.03449 6.62075,-13.73169 7.73248,-13.73169 0.31948,0 2.34393,1.22823 2.49754,1.51525 0.0866,0.16172 0.0772,0.76789 -0.0271,1.76442 -0.49574,4.73457 0.27585,10.25654 2.06684,14.79152 1.00247,2.53834 3.51164,7.15784 4.33534,7.98154 1.29138,1.29138 11.06375,-9.45826 14.82755,-16.31034 0.71163,-1.29554 0.56104,-1.24352 2.87912,-0.9946 2.63211,0.28263 2.42594,0.17878 3.05428,1.53855 2.18283,4.72387 3.83487,10.91734 4.39053,16.45996 0.12967,1.29343 0.23564,1.40273 1.08225,1.11619 1.99675,-0.6758 4.89838,-2.52059 4.71524,-2.99784 -0.21805,-0.56824 0.31653,-1.26649 0.9696,-1.26649 0.61411,0 0.72109,0.1762 1.08515,1.78738 0.54779,2.42431 2.01373,5.87346 3.27655,7.70928 0.47863,0.6958 0.55586,1.05577 0.32075,1.49506 -0.11115,0.2077 0.0957,0.82463 1.03152,3.07648 0.6438,1.54917 1.50619,3.64058 1.91641,4.64757 1.59489,3.91504 4.94043,11.96707 5.79091,13.93751 0.49155,1.13883 0.89371,2.0958 0.89371,2.12658 0,0.0308 0.17842,0.44164 0.39648,0.91305 0.21807,0.4714 0.60674,1.37585 0.86372,2.00988 1.30737,3.22564 3.15686,7.54401 4.38482,10.2381 1.21564,2.66708 1.31257,2.48366 -1.7798,3.36826 -13.00757,3.72091 -24.79362,4.92586 -43.73796,4.47156 z m 121.51693,-75.63817 c -0.55944,-0.24505 -1.68849,-0.76665 -2.509,-1.15911 -0.82051,-0.39245 -2.55986,-1.21901 -3.86521,-1.83678 -1.30536,-0.61776 -3.04471,-1.44365 -3.86522,-1.8353 -0.82051,-0.39165 -2.76732,-1.3104 -4.32624,-2.04169 -1.55892,-0.73127 -2.89603,-1.39121 -2.97135,-1.46653 -0.0759,-0.0759 -0.392,-0.10199 -0.70944,-0.0585 -0.67346,0.0923 -1.14742,-0.25828 -1.14742,-0.84875 0,-0.31967 1.22146,-1.67209 1.51698,-1.67964 0.19304,-0.005 2.94476,-3.15141 4.92424,-5.63067 7.54273,-9.44711 12.92604,-18.00094 17.96672,-28.54834 3.79156,-7.93363 4.98404,-11.03059 10.86191,-28.20929 6.51398,-19.03772 11.33718,-28.38385 17.85618,-34.60069 9.23608,-8.80796 23.02748,-10.64826 32.65462,-4.35736 4.3138,2.81888 9.61191,8.63427 9.23487,10.13652 -0.13374,0.53286 -0.29148,0.41981 -1.03802,-0.74397 -0.59631,-0.92961 -0.75003,-1.08498 -1.07342,-1.08498 -0.27206,0 -0.74476,-0.30356 -1.69297,-1.08723 -7.77956,-6.42948 -16.3817,-6.28714 -24.82435,0.41077 -9.47665,7.51822 -14.77166,19.13327 -19.72194,43.26164 -2.57742,12.56277 -3.59773,16.75254 -5.36696,22.0385 -1.33492,3.98841 -3.55313,9.38661 -4.12394,10.036 -0.13113,0.14918 -0.59328,1.12566 -1.02699,2.16995 -3.08978,7.43954 -7.10115,14.87692 -13.89811,25.7681 -1.28433,2.05794 -1.28142,2.05655 -2.85494,1.36731 z m 75.37606,-113.56026 c -0.11396,-0.13054 -0.28488,-0.57301 -0.37982,-0.98326 -0.58176,-2.51384 -2.23903,-6.56865 -3.99759,-9.78081 -1.45546,-2.65851 -1.49865,-2.58528 1.42328,-2.41255 8.89706,0.52597 10.75278,2.09305 8.17577,6.90412 -1.45251,2.71172 -4.28048,6.50984 -4.84705,6.50984 -0.0921,0 -0.26063,-0.10677 -0.37459,-0.23734 z m -9.41771,-18.10548 c -2.41879,-2.74902 -5.36519,-5.3457 -8.24468,-7.26611 -2.66402,-1.77669 -2.66448,-1.77975 -0.44383,-2.98448 10.42321,-5.65468 13.48109,-3.10653 10.3888,8.65703 -0.62181,2.36545 -0.84065,2.57055 -1.70029,1.59356 z M 408.9699,254.39704 c -3.68872,-1.57826 -7.76678,-2.69498 -11.65201,-3.19077 -2.69253,-0.34358 -2.55689,-0.74654 1.41258,-4.19632 7.07222,-6.14632 9.79186,-5.63335 11.10972,2.09547 0.74924,4.39402 0.50485,5.87998 -0.87029,5.29162 z m -20.01492,-4.01616 c -0.38525,-0.46418 0.67368,-1.52109 1.19625,-1.19397 0.28645,0.17929 0.38914,0.94371 0.16335,1.21578 -0.2199,0.26495 -1.13378,0.2503 -1.3596,-0.0218 z"
       id="path5"
       inkscape:label="Yellow Underside" /><path
       style="display:inline;fill:#fe6901;stroke-width:1.08497"
       d="m 227.64385,472.52728 c -0.29837,-0.0294 -1.7936,-0.14854 -3.32273,-0.26484 -11.4456,-0.87058 -24.02118,-3.04956 -31.3589,-5.43359 -3.77071,-1.22511 -10.08337,-3.73715 -10.54655,-4.19685 -0.24372,-0.24188 -0.26775,-0.24917 3.99922,1.21396 23.98151,8.2232 43.09432,8.29492 65.57303,0.24605 7.80151,-2.79346 16.09039,-6.99489 22.97034,-11.64312 1.60363,-1.08344 1.78202,-1.14765 1.92625,-0.69325 0.0528,0.16655 0.30734,0.76012 0.56551,1.31904 0.54292,1.17539 0.53601,1.20127 -0.52013,1.94879 -13.52309,9.57131 -38.77178,18.53832 -49.28604,17.50381 z m 33.70196,-0.44548 c 0,-0.0666 0.77813,-0.38006 1.72918,-0.69653 5.48021,-1.82362 12.17948,-4.77098 16.77702,-7.38109 1.90376,-1.08081 1.77005,-1.10999 2.49058,0.54358 0.68807,1.57909 0.84589,1.32394 -1.6707,2.70106 -3.77618,2.0664 -4.97908,2.5854 -7.05232,3.04282 -4.76273,1.05078 -12.27376,2.14629 -12.27376,1.79016 z M 173.0865,457.29504 c -0.86571,-0.0796 -2.91046,-1.34139 -4.72102,-2.91318 -0.72224,-0.62701 -0.62633,-0.6593 1.45405,-0.48948 6.89781,0.56305 18.00142,0.26091 27.78414,-0.75603 22.37189,-2.32562 39.8631,-6.69577 58.35118,-14.57894 1.34364,-0.57292 1.35204,-0.54441 -0.61029,-2.06809 -3.06847,-2.38256 -6.25871,-5.48792 -8.76619,-8.53295 -0.47604,-0.57808 -0.89088,-1.05106 -0.92186,-1.05106 -0.031,0 -1.1976,0.33249 -2.59248,0.73886 -24.69224,7.19372 -57.23148,11.2254 -78.31078,9.70288 -4.34982,-0.31419 -11.18256,-1.1264 -12.59448,-1.49712 -0.90651,-0.23802 -2.66446,-3.78221 -1.78531,-3.59936 19.65676,4.08831 50.51954,2.20187 81.06779,-4.95517 5.45307,-1.27758 11.7966,-2.97798 12.04817,-3.22955 0.0678,-0.0678 -0.33443,-0.86518 -0.93864,-1.86062 -1.17947,-1.94317 -3.32897,-6.07 -3.99196,-7.66414 l -0.43246,-1.03982 1.34487,-1.6048 c 2.38043,-2.8405 5.09001,-6.71253 6.17744,-8.82763 0.54389,-1.05791 0.53411,-1.05533 2.96314,-0.78328 2.46231,0.27579 2.20975,0.14043 2.85084,1.5279 2.18319,4.72494 3.85843,10.99289 4.40459,16.47994 0.13042,1.31013 0.21731,1.39175 1.14283,1.07333 1.42662,-0.49083 4.19489,-2.07501 5.14947,-2.94684 1.11804,-1.02115 1.21685,-0.9775 1.60094,0.70708 0.33487,1.46873 1.07599,3.50394 1.80662,4.96118 0.28901,0.57643 0.52547,1.17047 0.52547,1.32009 0,0.28956 0.68185,2.04368 2.37434,6.1082 1.03989,2.49732 2.32592,5.62819 3.60158,8.76817 0.36824,0.90642 0.66954,1.77249 0.66954,1.92461 0,0.15211 0.0678,0.31849 0.15076,0.36973 0.14645,0.0905 0.66457,1.17107 0.85716,1.78764 0.30117,0.96413 -6.91455,-1.23618 -11.48436,-3.50197 l -1.67804,-0.83201 -2.31435,1.02623 c -18.39791,8.15795 -37.65081,13.01342 -61.07239,15.40211 -8.05991,0.822 -19.8196,1.22882 -24.11031,0.83409 z m -8.77793,-48.65305 c -9.10266,-0.29742 -22.01136,-1.1848 -22.36393,-1.53737 -0.1086,-0.1086 -0.47121,-2.26991 -0.48353,-2.88202 -0.007,-0.30059 0.44635,-0.30655 3.11452,-0.041 10.17108,1.01205 19.74429,1.3582 34.71913,1.25538 10.22835,-0.0702 13.38286,-0.15566 26.17496,-0.70872 l 4.81457,-0.20816 0.95039,0.98711 c 0.52272,0.5429 1.22355,1.2119 1.55738,1.48666 0.33384,0.27475 0.57602,0.53051 0.53818,0.56835 -0.13686,0.13686 -14.46829,0.75356 -23.99948,1.03273 -3.93057,0.11513 -21.90446,0.14895 -25.02219,0.0471 z m 49.8796,-1.22543 c -0.0877,-0.22853 0.75307,-2.56113 1.04631,-2.90287 0.20537,-0.23935 8.84374,-0.95217 9.04918,-0.74673 0.2012,0.20121 0.55315,2.86614 0.39865,3.01862 -0.0993,0.098 -1.81752,0.26184 -4.63327,0.44194 -2.46153,0.15744 -4.77057,0.30778 -5.13118,0.33408 -0.47535,0.0347 -0.67604,-0.005 -0.72969,-0.14504 z m 133.75202,-15.13992 c -0.29837,-0.15456 -1.9416,-0.93847 -3.65164,-1.74202 -1.71003,-0.80356 -3.17169,-1.52354 -3.24814,-1.59999 -0.0764,-0.0764 -0.22034,-0.13899 -0.3198,-0.13899 -0.35923,0 -1.52801,-0.68619 -1.52801,-0.89708 0,-0.2009 1.31421,-1.53655 1.51698,-1.54173 0.19304,-0.005 2.94476,-3.15141 4.92424,-5.63067 7.50244,-9.39664 12.95893,-18.06661 17.96706,-28.54834 3.80756,-7.96902 4.92882,-10.8808 10.86281,-28.20929 5.86698,-17.1328 10.00644,-25.69287 15.54212,-32.13979 12.66465,-14.74936 34.40275,-13.75094 43.79231,2.01138 0.95553,1.60406 0.32546,2.0733 -0.67125,0.49989 -0.59234,-0.93506 -0.68545,-1.02196 -1.09508,-1.02196 -0.24934,0 -0.52941,-0.0985 -0.63214,-0.22225 -0.35341,-0.42583 -4.74031,-3.85846 -5.88314,-4.60339 -1.83464,-1.19588 -6.08783,-3.04041 -7.0107,-3.04041 -0.1415,0 -0.096,0.67895 0.10101,1.50604 0.0934,0.39224 -0.29,0.52359 -1.53777,0.52679 -0.67476,0.002 -0.676,-3.3e-4 -0.81035,-1.35258 l -0.10079,-1.01504 -0.54249,-0.096 c -2.48566,-0.44003 -9.56132,0.74672 -9.56132,1.60366 0,0.24889 0.90141,1.43022 2.01852,2.64536 1.00791,1.09637 1.02047,0.92752 -0.12405,1.6679 -1.34374,0.86927 -1.74411,0.60474 -3.33062,-2.20053 -0.34903,-0.61717 -0.69067,-1.15677 -0.75918,-1.19912 -0.65317,-0.40368 -8.38315,5.98755 -8.38315,6.93128 0,0.22772 1.835,1.60996 3.36672,2.53604 1.40561,0.84982 1.40564,0.84993 0.6109,1.92505 -0.88562,1.19805 -1.4372,0.98314 -4.27233,-1.66456 -1.17057,-1.09318 -1.01965,-1.12874 -2.23815,0.52731 -2.50014,3.39789 -5.36978,9.19255 -4.84605,9.78561 0.53029,0.6005 2.76799,2.37447 3.63412,2.881 0.4932,0.28844 0.89673,0.59366 0.89673,0.67829 0,0.44356 -0.80333,2.18229 -1.00047,2.16541 -0.34779,-0.0297 -2.34289,-1.53086 -3.45114,-2.59658 -0.56478,-0.54311 -1.09698,-0.96058 -1.18266,-0.92769 -0.36025,0.13823 -4.40628,13.30991 -4.19399,13.65338 0.10556,0.17077 2.65453,1.4426 3.92873,1.96025 0.52214,0.21212 1.02176,0.45132 1.11026,0.53155 0.22853,0.20718 -0.30599,2.51925 -0.58241,2.51925 -0.25365,0 -2.29658,-1.02857 -3.76149,-1.89383 -1.38405,-0.8175 -1.39956,-0.81923 -1.56662,-0.1744 -1.38541,5.34716 -1.94864,7.29275 -2.93481,10.13772 -1.38674,4.00057 -1.3644,3.87749 -0.74128,4.08421 0.4912,0.16297 4.07487,0.99842 5.47541,1.27647 l 0.79647,0.15813 -0.0779,0.56333 c -0.34211,2.47369 -0.63176,2.50003 -6.17482,0.56161 -1.60809,-0.56236 -1.3722,-0.79689 -2.66174,2.64633 -1.17355,3.13348 -2.46681,6.36567 -3.13542,7.83626 -0.62317,1.37062 0.48848,2.168 5.71019,4.09588 1.04428,0.38557 1.94299,0.74377 1.99712,0.79604 0.11341,0.10949 -0.65955,2.30706 -0.90292,2.56705 -0.28247,0.30176 -4.42167,-1.5734 -7.01736,-3.17903 -1.51722,-0.93851 -1.30678,-1.08771 -2.82444,2.00247 -0.70862,1.44285 -1.85514,3.74679 -2.54783,5.11986 -1.17024,2.31973 -1.24401,2.51351 -1.04198,2.73675 0.26245,0.29001 5.01819,2.71845 6.91254,3.52978 1.89678,0.81237 1.82658,0.67766 1.13562,2.17918 -0.32167,0.69903 -0.64313,1.31165 -0.71434,1.36138 -0.24143,0.1686 -4.4431,-1.72131 -7.29917,-3.28315 -0.94915,-0.51905 -1.77716,-0.94373 -1.84001,-0.94373 -0.0628,0 -0.93248,1.3274 -1.9325,2.94977 -1.00002,1.62237 -2.81188,4.43451 -4.02636,6.2492 -1.21446,1.81468 -2.20812,3.37527 -2.20812,3.46798 0,0.42437 5.00728,2.86258 8.65847,4.21611 1.56048,0.57848 1.51394,2.67672 -0.0729,3.28564 -0.46684,0.17915 -6.72964,-2.54945 -9.44049,-4.11307 -1.29129,-0.74481 -0.93489,-0.9852 -3.24011,2.18548 -3.09137,4.25197 -2.77043,3.96663 -3.83885,3.41318 z M 141.56182,385.8669 c -0.0948,-0.1613 0.26845,-2.92467 0.40179,-3.05641 0.19307,-0.19077 62.99759,-0.80718 63.18462,-0.62014 0.0922,0.0922 -0.32673,2.63048 -0.4859,2.94351 -0.11262,0.2215 1.54734,0.1968 -35.87824,0.53369 -9.02562,0.0813 -18.8267,0.18695 -21.78017,0.23491 -3.16321,0.0513 -5.3996,0.0368 -5.4421,-0.0356 z m 5.04814,-23.51585 c 0,-0.3876 0.80992,-2.88787 0.99608,-3.07496 0.87977,-0.88416 18.12251,-1.94503 28.4338,-1.7494 10.14064,0.19239 29.64865,1.06327 29.92113,1.33575 0.047,0.047 0.032,0.74397 -0.0334,1.54887 l -0.11881,1.46345 -1.49183,-0.0166 c -0.82051,-0.009 -3.29222,-0.11619 -5.49268,-0.23791 -23.99756,-1.32745 -40.25464,-1.09228 -50.54657,0.73124 -1.83516,0.32515 -1.66773,0.3252 -1.66773,-4.3e-4 z m 62.04687,-21.70429 c -15.02998,-2.60752 -29.29703,-2.77155 -51.65529,-0.59388 -2.57762,0.25106 -2.51105,0.29704 -1.82334,-1.25937 0.65841,-1.49008 0.28563,-1.32648 4.11012,-1.80387 18.47276,-2.30582 34.12137,-2.17603 49.77537,0.41288 4.4977,0.74384 4.1362,0.48174 3.24422,2.35215 -0.73308,1.53723 -0.40065,1.456 -3.65108,0.89209 z m 9.4257,-15.67807 c -12.96161,-3.42105 -25.68379,-4.35457 -46.92507,-3.44326 -1.60373,0.0688 -3.90759,0.16742 -5.11971,0.21916 -1.21212,0.0517 -2.20385,0.0574 -2.20385,0.0125 0,-0.11816 1.62376,-2.78828 1.73888,-2.85943 0.0533,-0.033 1.40797,-0.15722 3.01035,-0.27616 20.99241,-1.55815 37.30372,-0.40916 52.17793,3.67549 1.95019,0.53554 1.99259,0.57436 1.41765,1.29782 -0.20863,0.26253 -0.61547,0.8202 -0.90408,1.23924 -0.6144,0.89209 -0.3625,0.88147 -3.1921,0.13463 z m 7.73043,-6.46581 c 0,-0.17897 1.83883,-6.17087 2.2321,-7.27337 0.2795,-0.78356 0.42133,-0.70654 -2.74498,-1.49062 -13.88125,-3.43749 -30.39357,-5.0588 -46.14094,-4.53048 -4.67452,0.15682 -4.46054,0.22935 -3.40686,-1.15481 1.00369,-1.31849 0.57959,-1.19537 4.77985,-1.38779 15.89303,-0.72808 32.18657,0.80292 46.39361,4.35933 1.17146,0.29325 2.18574,0.53318 2.25395,0.53318 0.0683,0 0.53562,-1.11379 1.03869,-2.47509 1.3102,-3.54541 3.13747,-8.0971 4.2577,-10.60584 1.21761,-2.72684 1.22663,-2.55902 -0.15287,-2.84246 -6.83684,-1.40481 -15.42987,-2.60677 -21.86898,-3.05898 -4.96598,-0.34874 -7.40382,-0.43103 -14.95227,-0.50475 -6.06296,-0.0592 -8.03558,-0.11794 -8.03558,-0.23931 0,-0.0884 0.53409,-0.68349 1.18685,-1.32226 l 1.18686,-1.16139 2.30539,-0.11447 c 14.1796,-0.704 28.65348,0.56196 40.48229,3.54081 2.39734,0.60372 2.04083,0.82599 3.51597,-2.19199 3.18261,-6.51131 2.93426,-6.24846 6.06274,-6.41693 1.40801,-0.0758 3.47546,-0.20545 4.59434,-0.28806 3.9809,-0.29391 4.1792,-0.26557 3.6216,0.51768 -1.09571,1.53913 -3.07459,7.60728 -4.63773,14.22146 l -0.41912,1.77337 -1.78814,1.54936 c -3.61449,3.13183 -9.89867,9.52151 -14.26181,14.50123 -0.8823,1.00699 -1.76856,1.90289 -1.96946,1.99088 -0.22474,0.0984 -0.44395,0.36027 -0.56975,0.68055 -0.37268,0.94873 -2.96345,3.91307 -2.96345,3.39075 z m 208.12728,-34.84786 c -0.10654,-0.16784 -0.32251,-0.78228 -0.47992,-1.36544 l -0.2862,-1.0603 1.20391,-1.65213 c 3.72464,-5.11137 3.59253,-5.35943 -3.55916,-6.68252 l -1.34232,-0.24833 -0.45466,-0.71077 c -0.85279,-1.33312 -0.62326,-1.47533 2.1846,-1.35352 10.20756,0.44282 11.3828,3.02714 5.11553,11.24886 -1.69966,2.22969 -1.98541,2.44854 -2.38178,1.82415 z m -158.08292,-8.43533 c 0,-0.0334 0.7171,-0.78226 1.59355,-1.66417 17.03781,-17.14384 20.94039,-44.24932 9.83709,-68.32368 -3.59745,-7.80004 -10.27833,-14.93234 -17.39911,-18.5747 -0.81989,-0.41938 -1.49072,-0.82059 -1.49072,-0.89156 0,-0.0804 3.64834,-0.12911 9.68588,-0.1292 11.5638,-1.9e-4 10.23261,0.28339 11.61898,-2.4751 0.9039,-1.79849 0.80248,-1.76861 2.32215,-0.68429 17.04741,12.16378 25.74816,35.03576 22.94713,60.32203 -0.68023,6.14066 -4.70885,20.49939 -6.06178,21.60523 -0.63795,0.52146 -6.15275,3.07249 -9.75443,4.51223 -5.13769,2.05372 -16.44075,5.38721 -17.8541,5.26551 -0.19735,-0.017 -0.57243,0.0687 -0.83351,0.19035 -0.77029,0.35902 -4.61113,1.06482 -4.61113,0.84735 z m 148.60734,-9.62981 c -0.60746,-0.71066 -0.60896,-0.73889 -0.1387,-2.60629 1.73321,-6.88252 -0.13035,-8.46413 -6.60847,-5.60866 -1.7658,0.77835 -1.64824,0.76902 -2.56451,0.20346 -1.56907,-0.96849 -1.48869,-1.08602 1.91163,-2.79504 9.40392,-4.72646 12.11296,-2.19643 9.31334,8.69796 -0.76102,2.9614 -0.97896,3.20159 -1.91329,2.10857 z m -15.90053,-11.34886 c -1.01188,-0.41023 -1.01773,-0.4201 -1.02283,-1.72777 -0.0298,-7.64121 -1.60477,-8.18737 -7.90722,-2.7421 -0.95755,0.82731 -1.76178,1.50422 -1.78717,1.50422 -2.49023,0 -2.91472,-0.55613 -1.52372,-1.99621 8.97269,-9.28928 13.24399,-8.33169 13.87864,3.11146 0.12655,2.28174 -0.0584,2.49068 -1.6377,1.8504 z m -19.60174,-3.85121 c -0.34071,-0.41052 0.45765,-1.37349 1.04492,-1.26039 0.34553,0.0665 0.53684,0.69525 0.34179,1.12332 -0.18608,0.4084 -1.08758,0.49751 -1.38671,0.13707 z M 164.24076,179.15628 c 0,-0.22412 2.96464,-3.0135 3.7813,-3.55775 2.97981,-1.98588 3.57015,-2.0991 12.69673,-2.43498 9.8163,-0.36126 33.61956,-1.19539 37.29593,-1.30695 4.72334,-0.14334 7.18091,0.75582 10.57848,3.87039 1.90284,1.74433 1.96829,1.66838 -0.94958,1.10193 -4.20686,-0.81668 -9.54868,-1.52882 -14.51128,-1.93453 -3.37196,-0.27567 -15.99856,-0.23024 -19.73294,0.071 -10.51657,0.84836 -19.72757,2.17943 -26.96938,3.89735 -1.73134,0.4107 -2.18926,0.4721 -2.18926,0.29354 z"
       id="path7"
       inkscape:label="Orange Stripes" /><path
       style="display:inline;fill:#944006;stroke-width:1.08497"
       d="m 354.15001,327.94907 c -0.3172,-0.12869 -0.71086,-0.95957 -1.59894,-3.3748 -7.8235,-21.27703 -13.27259,-32.0748 -21.65387,-42.90875 -1.45574,-1.88175 -1.45307,-1.80919 -0.10774,-2.93126 1.31958,-1.10061 0.98308,-1.29498 3.45589,1.99609 9.02728,12.01438 16.16988,26.93674 19.78719,41.33948 1.37141,5.46043 1.3901,6.39553 0.11751,5.87924 z m -39.30943,-4.58393 c -1.97297,-3.01112 0.18667,-20.85717 3.89872,-32.21703 0.64941,-1.98735 0.5694,-1.85342 0.97703,-1.63526 0.42047,0.22503 0.58416,0.12164 1.38319,-0.87374 1.15866,-1.44337 3.06809,-3.59397 3.19096,-3.59397 0.18479,0 0.16446,0.0664 -0.57734,1.88547 -3.46283,8.49177 -7.09891,25.07306 -7.52211,34.30252 -0.10177,2.21977 -0.18178,2.46416 -0.80658,2.46416 -0.19652,0 -0.41277,-0.13207 -0.54387,-0.33215 z m -28.48767,-30.29007 c -1.91068,-1.2365 -1.0682,-3.00729 1.66251,-3.4944 13.40409,-2.39106 24.27065,-6.75151 32.81619,-13.16827 1.59412,-1.19701 1.86143,-1.32297 1.75462,-0.82687 -0.0361,0.16784 -0.19424,0.97648 -0.35135,1.79699 -0.50401,2.6321 -0.26905,2.28672 -2.60467,3.82878 -8.33451,5.50273 -19.54604,9.66732 -31.2957,11.62496 -0.70863,0.11807 -1.41098,0.24172 -1.56078,0.27478 -0.1498,0.0331 -0.33917,0.0169 -0.42082,-0.0359 z m 39.77322,-14.51654 c -0.31384,-0.3468 -0.31555,-0.33776 0.5787,-3.06579 1.28304,-3.9141 2.20646,-8.59406 3.07913,-15.6054 0.26954,-2.16559 0.32852,-7.16626 0.13837,-11.73127 l -0.11582,-2.78024 0.31925,-0.41532 c 0.17558,-0.22842 0.80748,-0.84635 1.40422,-1.3732 4.27413,-3.77347 10.74978,-11.27691 14.28047,-16.54704 3.7543,-5.60389 5.43249,-8.99872 7.85655,-15.89317 0.56712,-1.61297 1.88001,-1.8594 5.32635,-0.99977 13.13674,3.27674 36.20203,14.12417 48.30478,22.71738 3.34623,2.37589 3.89489,3.09051 2.92582,3.81083 l -0.37339,0.27756 -0.6213,-0.30185 c -0.34172,-0.16601 -2.2487,-1.23625 -4.23774,-2.3783 -13.61155,-7.81531 -27.48275,-14.37788 -39.42053,-18.65015 -10.07508,-3.60565 -8.67046,-3.60343 -10.04984,-0.016 -1.21203,3.15228 -2.7276,6.3143 -4.24839,8.86368 -1.15487,1.93596 -1.19681,1.50178 0.29531,3.05702 8.90989,9.28686 20.95605,27.80728 23.30416,35.82913 0.75812,2.58996 -0.54397,2.61117 -2.04573,0.0333 -8.44998,-14.50475 -15.90867,-25.18189 -23.07665,-33.03432 -1.35485,-1.48421 -1.20255,-1.51645 -2.68565,0.56859 -2.91196,4.09383 -6.8464,8.64556 -11.33732,13.11607 l -2.7457,2.73322 0.1436,1.132 c 1.39309,10.98192 -3.88397,34.09459 -6.99865,30.65292 z m 21.14222,-160.02278 c -4.77376,-17.20221 -11.76748,-27.757047 -24.96064,-37.670274 -5.28723,-3.972786 -9.65632,-6.489798 -18.47844,-10.64535 -4.30123,-2.026046 -4.12419,-1.854353 -3.12721,-3.032642 0.38724,-0.45768 0.7478,-0.884505 0.80124,-0.9485 0.29026,-0.347633 7.38922,2.638241 11.27484,4.742279 20.11962,10.894648 31.84074,25.160174 36.78063,44.764907 0.46039,1.82709 0.50284,1.67927 -0.77095,2.68422 -1.35208,1.06672 -1.25456,1.05996 -1.51947,0.10535 z m -14.68554,-3.86522 c -0.74874,-0.83916 -2.23788,-2.41132 -3.30922,-3.49369 -1.70919,-1.72678 -2.15883,-2.28353 -3.66933,-4.54332 -3.51491,-5.25851 -6.96759,-8.87826 -12.31679,-12.91278 -0.73074,-0.55115 -3.56578,-5.19546 -3.32093,-5.440307 0.26053,-0.26053 5.81015,3.366673 8.81501,5.761451 5.6656,4.515295 11.12344,12.070076 14.75788,20.427926 0.97892,2.25115 0.88961,2.26988 -0.95662,0.20072 z m 27.19352,-7.0943 c -0.0433,-0.0701 -0.3675,-0.98196 -0.7205,-2.02625 -3.59472,-10.634366 -7.20987,-17.550929 -12.34385,-23.616516 -9.13355,-10.790906 -20.70682,-18.77179 -33.88785,-23.368933 -2.60512,-0.908586 -2.56117,-0.814409 -0.94496,-2.02458 1.51858,-1.137069 1.16754,-1.123311 4.04225,-0.15841 20.90189,7.015736 38.35516,24.675543 45.34252,45.879099 l 0.88249,2.678 -0.55274,0.71254 c -0.95342,1.22903 -1.73561,2.05757 -1.81736,1.92505 z m 8.91712,-15.893561 c -4.51687,-13.949043 -14.3776,-27.377032 -25.56783,-34.817349 -4.60035,-3.058744 -12.35285,-6.860545 -16.77505,-8.226426 -0.46436,-0.143425 -0.87985,-0.318298 -0.9233,-0.388609 -0.0709,-0.114581 1.52696,-1.002452 2.99657,-1.665177 l 0.55564,-0.250569 1.72898,0.62673 c 18.71193,6.782823 34.6221,23.463098 40.76918,42.742529 l 0.30956,0.9709 -0.9983,1.707626 c -1.25143,2.140611 -1.16656,2.168944 -2.09545,-0.699655 z m 8.06361,-12.119354 c -4.97021,-18.616224 -14.23628,-30.699262 -29.05739,-37.891103 -3.65115,-1.771695 -3.58069,-1.60954 -1.05916,-2.437487 l 2.02305,-0.664271 0.8704,0.369925 c 12.65883,5.380071 23.84241,18.932409 29.00249,35.14539 0.50382,1.583007 0.52318,1.415733 -0.42979,3.712476 -1.00275,2.416726 -1.13088,2.584295 -1.3496,1.76507 z m 6.32156,-17.087479 c -0.0387,-0.178621 -0.1693,-0.843518 -0.29021,-1.477549 -2.63013,-13.792113 -9.13247,-21.806304 -21.18435,-26.109915 -1.20692,-0.430984 2.34201,-2.365028 3.63109,-1.978812 7.19251,2.154927 15.24506,10.329857 18.31685,18.595216 1.53648,4.134261 1.54636,4.263207 0.61647,8.044898 -0.72748,2.958499 -0.95213,3.561659 -1.08985,2.926162 z M 215.84477,60.991728 c -4.55869,-0.60384 -9.25719,-1.04706 -13.66387,-1.288944 -1.87527,-0.102931 -1.82319,0.02871 -0.69526,-1.75748 l 0.89829,-1.422529 h 0.92193 c 3.20697,0 12.87721,1.144649 13.22238,1.565109 0.43662,0.531854 0.69113,3.067131 0.30404,3.028827 -0.0956,-0.0094 -0.53996,-0.06571 -0.98751,-0.124983 z m -2.91586,-9.21826 c -1.60781,-0.272318 -5.31512,-0.675161 -6.23859,-0.6779 -1.0821,-0.0033 -1.09777,-0.07931 -0.34022,-1.652664 0.36983,-0.768063 0.71578,-1.450527 0.76881,-1.516585 0.17986,-0.224042 6.36184,0.53669 6.61609,0.814152 0.14401,0.157153 1.09261,2.858219 1.09261,3.11111 0,0.2339 -0.0746,0.230828 -1.8987,-0.07812 z M 386.59932,40.485523 c -2.37717,-4.10993 -6.64056,-7.591149 -12.99717,-10.61267 -1.90934,-0.90757 -1.89112,-0.786837 -0.28643,-1.89789 l 1.30271,-0.901963 0.76552,0.302259 c 4.1608,1.642855 8.5033,4.597888 11.02444,7.50203 l 0.92987,1.071129 v 1.655314 c 0,3.095503 -0.189,3.832595 -0.73894,2.881791 z m -0.75655,-14.633649 c -1.32271,-1.003095 -2.88026,-1.96826 -4.37015,-2.70804 -1.70064,-0.844425 -1.68004,-0.787054 -0.69612,-1.939634 0.94206,-1.103557 0.76794,-1.113856 3.4204,0.202345 2.48112,1.231182 2.38595,1.123977 2.51993,2.838294 0.0496,0.634031 0.12347,1.381645 0.16425,1.661365 0.098,0.67182 -0.0941,0.661775 -1.03831,-0.05433 z"
       id="path8"
       inkscape:label="Dark Orange Details" /><path
       style="display:inline;fill:url(#radialGradient14);fill-opacity:1;stroke-width:1.08497"
       d="m 103.65147,133.81229 c -5.762113,-0.96015 -6.695558,-5.45709 -2.48767,-11.9845 0.43391,-0.6731 3.37063,-5.43486 6.52604,-10.5817 3.15542,-5.14684 8.45057,-13.782552 11.76702,-19.190462 3.31646,-5.40791 6.40321,-10.442861 6.85947,-11.18878 3.45335,-5.645721 10.03581,-9.629711 16.91305,-10.236512 3.9101,-0.344998 127.50508,-5.723905 130.05113,-5.659881 6.00125,0.150913 8.4716,2.223063 7.88679,6.615489 -0.23963,1.799763 -0.20131,1.718339 -8.32474,17.689442 -4.21132,8.279697 -9.07994,17.861364 -10.81915,21.292594 -5.38543,10.62472 -5.799,11.27335 -8.4392,13.23605 -3.55235,2.64078 -6.45363,3.54128 -12.18193,3.78107 -1.89815,0.0794 -15.01632,0.69185 -29.15148,1.36086 -14.13516,0.66901 -43.76173,2.07146 -65.83683,3.11656 -40.72182,1.92789 -41.50197,1.95981 -42.7625,1.74977 z"
       id="path6"
       inkscape:label="Glass" /><path
       style="display:inline;opacity:0.4;mix-blend-mode:screen;fill:#0f272f;stroke-width:1.08497"
       d="m 155.63351,131.52914 c -0.18943,-0.3065 2.00994,-2.43852 18.03295,-17.48069 9.10021,-8.54314 18.89547,-17.738922 21.76727,-20.435072 20.64878,-19.385908 28.04122,-26.30059 28.2771,-26.449618 0.18645,-0.117804 1.77625,-0.239198 5.0858,-0.388341 2.64801,-0.119331 7.43885,-0.337238 10.6463,-0.484239 3.20745,-0.147 7.4185,-0.329688 9.35789,-0.405974 1.93939,-0.07628 4.21274,-0.17784 5.0519,-0.225678 1.04544,-0.0596 1.52574,-0.0414 1.52574,0.05781 0,0.141831 -7.41001,7.208457 -46.38258,44.233152 -10.62934,10.09808 -19.75328,18.76728 -20.27542,19.26489 l -0.94935,0.90475 -3.7296,0.16265 c -2.05128,0.0895 -4.73659,0.22131 -5.96735,0.29302 -1.23077,0.0717 -3.67196,0.19197 -5.42486,0.26726 -1.75291,0.0753 -4.98749,0.22445 -7.18794,0.33144 -2.20047,0.10697 -4.97731,0.23037 -6.17078,0.27418 -1.19347,0.0438 -2.48449,0.11229 -2.86893,0.15219 -0.42553,0.0442 -0.73387,0.0161 -0.78814,-0.0717 z"
       id="path9"
       inkscape:label="Glass Shine" /><path
       style="display:inline;opacity:0.5;mix-blend-mode:multiply;fill:#b088bd;fill-opacity:1;stroke-width:1.08497"
       d="m 324.20641,496.79059 c -15.36055,-1.05471 -25.4117,-6.70765 -33.44624,-18.81077 -1.96905,-2.96616 -1.95812,-2.91792 -0.53913,-2.3786 3.7323,1.41857 7.71994,1.26525 10.53801,-0.40516 2.04445,-1.21185 1.90904,-0.91597 1.99037,-4.34936 0.56442,-23.82881 30.62795,-46.5182 61.63677,-46.5182 h 1.1254 l 2.35347,-1.27269 c 8.31776,-4.498 8.84808,-9.21466 1.99834,-17.77312 -1.50258,-1.8774 -1.28931,-1.90338 1.66861,-0.20328 18.48178,10.6226 26.46203,21.1303 27.14524,35.74245 0.72507,15.50737 -11.15141,34.02532 -27.88482,43.47835 -0.33567,0.18962 -1.37318,0.78547 -2.30557,1.32412 -13.76564,7.95244 -30.31331,12.12528 -44.28045,11.16626 z M 134.47183,484.05557 c -6.35894,-0.65283 -11.96026,-2.96108 -16.83139,-6.93604 -0.70864,-0.57827 -1.69716,-1.37594 -2.19671,-1.77258 -1.15201,-0.91471 -5.04473,-4.77921 -5.04473,-5.00816 0,-0.10286 0.69597,0.17617 1.72917,0.69325 13.27029,6.64137 24.60277,3.23284 50.892,-15.30704 3.92788,-2.77005 3.82322,-2.61206 2.47088,-3.7297 -1.83636,-1.51767 -6.68616,-6.40841 -6.51976,-6.5748 0.0297,-0.0297 1.30386,0.5696 2.83131,1.33192 15.93701,7.95376 35.21992,10.0553 64.82409,7.06482 24.00838,-2.42523 39.1752,-10.64833 40.8818,-22.16518 0.159,-1.07305 0.23052,-1.35621 0.34255,-1.35621 0.1415,0 1.63207,3.61194 1.63207,3.9548 0,0.14325 0.11934,0.42581 0.26521,0.62792 0.14586,0.2021 1.42159,3.17483 2.83494,6.60606 1.41336,3.43122 2.97233,7.17036 3.46439,8.30921 0.49205,1.13883 0.89464,2.09579 0.89464,2.12657 0,0.0308 0.17842,0.44165 0.39649,0.91306 0.21806,0.4714 0.60673,1.37585 0.86371,2.00988 1.30737,3.22564 3.15686,7.54401 4.38482,10.2381 1.21565,2.66708 1.31257,2.48366 -1.7798,3.36826 -12.33379,3.52816 -23.1774,4.7545 -39.94056,4.51704 -27.57556,-0.39066 -46.81481,-4.08012 -61.67317,-11.82692 -2.31923,-1.20919 -2.13134,-1.19805 -2.87996,-0.17065 -0.33415,0.4586 -1.76945,1.90743 -3.18955,3.21963 -16.77829,15.50347 -27.49584,21.01213 -38.65244,19.86676 z m 123.51735,-57.99389 c -0.30463,-0.14692 -0.30515,-0.15313 -0.30515,-3.60506 v -3.4579 l 1.40215,-1.43766 c 6.58094,-6.74763 9.34807,-11.55511 9.93209,-17.25551 0.32761,-3.19768 -2.26935,-5.99795 -6.72311,-7.24945 -0.70862,-0.19912 -1.41046,-0.46683 -1.55964,-0.59491 -1.73801,-1.49214 -3.58781,-1.49685 -6.62807,-0.0169 -4.61381,2.24595 -5.26509,5.64426 -2.59898,13.56107 0.55035,1.63423 0.5878,1.50004 -0.70143,2.51334 -2.45749,1.93152 -5.62827,6.90264 -6.8242,10.69888 -0.6304,2.0011 -0.68547,2.12801 -1.01779,2.34575 -1.56227,1.02364 -5.47873,-2.1228 -6.91196,-5.55299 -0.33422,-0.79991 -0.48911,-0.7535 -1.70225,0.51014 -1.2513,1.30338 -1.25766,1.30607 -1.87057,0.78957 l -0.44258,-0.37296 1.20854,-1.62746 c 9.71417,-13.08151 12.41335,-21.3662 8.39533,-25.7681 -0.84961,-0.93078 -2.31804,-3.7232 -2.08201,-3.95923 0.0477,-0.0477 0.80392,-0.13732 1.68037,-0.19904 26.2088,-1.84535 39.68796,-17.16808 40.42492,-45.9539 0.17621,-6.88244 -0.0536,-12.14443 -0.99188,-22.71662 -0.17876,-2.01398 -0.39252,-4.60775 -0.47504,-5.76392 -0.0826,-1.15617 -0.35963,-4.63487 -0.6158,-7.73043 -0.25616,-3.09555 -0.55741,-6.80826 -0.66944,-8.25045 -0.11202,-1.4422 -0.35637,-3.42566 -0.54297,-4.4077 -0.95378,-5.01937 -1.75293,-13.53791 -1.32792,-14.15513 0.17649,-0.25633 4.08121,-1.04191 4.29537,-0.86417 0.11568,0.096 0.20701,0.71231 0.26785,1.80735 0.14907,2.68364 0.52908,5.63563 0.90789,7.05261 0.15675,0.58637 0.32221,0.62258 1.40198,0.30676 0.37952,-0.111 1.91063,-0.41904 3.40246,-0.68452 8.53432,-1.51878 15.85827,-3.72074 22.59513,-6.7933 1.73404,-0.79087 2.61824,-1.12967 2.68141,-1.02747 0.1755,0.28398 2.05121,38.13059 2.05121,41.38788 0,1.31048 0.14064,1.28186 1.12364,-0.22873 6.20904,-9.54133 16.31233,-12.31034 25.0268,-6.85907 7.55215,4.72418 14.6541,14.70591 17.39255,24.44508 0.4474,1.59117 0.536,1.62091 1.15725,0.38846 l 0.50029,-0.99244 -0.0909,-2.45203 c -0.18095,-4.8803 -1.05709,-10.83325 -2.38423,-16.19946 -0.22631,-0.91502 -0.41146,-1.86474 -0.41146,-2.11048 0,-0.24574 -0.0593,-0.4835 -0.13193,-0.52834 -0.0726,-0.0448 -0.19855,-0.33834 -0.27997,-0.65221 -2.35432,-9.07594 -8.25744,-22.64973 -13.2829,-30.54303 -2.16226,-3.39617 -6.28918,-8.40854 -6.92316,-8.40854 -1.16786,0 -10.39761,8.51049 -13.27823,12.24349 -1.23731,1.60343 -1.53539,1.84036 -1.88078,1.49497 -0.24904,-0.24904 -0.20283,-0.58847 0.31973,-2.3486 2.13227,-7.18201 4.26428,-20.5986 4.26428,-26.83469 0,-2.268 -0.2172,-4.42373 -0.44572,-4.42373 -0.24246,0 -0.75483,0.35386 -2.06328,1.42496 -3.62473,2.96721 -10.26239,7.39388 -13.12232,8.75129 -0.42942,0.20381 -0.85663,0.43248 -0.94935,0.50815 -0.29296,0.23905 -4.71119,2.40848 -6.40719,3.14604 -7.74609,3.36862 -17.25093,6.2214 -25.97153,7.79509 -9.19183,1.65873 -16.78407,2.64356 -26.10715,3.38648 -13.23324,1.05452 -29.16842,1.02697 -42.78861,-0.074 -2.87034,-0.23201 -3.50447,-0.32082 -3.72959,-0.5223 -0.23846,-0.21341 -0.39264,-0.22774 -1.27538,-0.11855 -2.59106,0.32053 -15.75515,-1.84519 -23.7468,-3.90676 -10.29953,-2.65693 -20.99444,-6.8472 -29.35591,-11.50164 -1.58745,-0.88366 -1.50859,-0.8681 -1.61837,-0.31921 -0.1073,0.53668 -0.20473,0.45265 1.77546,1.53183 2.19997,1.19893 2.25874,1.40143 0.69091,2.3803 -0.53362,0.33317 -1.85783,1.26183 -2.94266,2.06369 -1.17121,0.8657 -2.09998,1.45793 -2.28642,1.45793 -0.24985,0 -0.50726,0.29691 -1.26016,1.45355 -1.76638,2.71359 -2.26528,2.02003 -0.76661,-1.06569 0.41155,-0.84736 0.96883,-2.07435 1.2384,-2.72666 0.26958,-0.65232 0.90079,-2.03495 1.40268,-3.07252 1.25991,-2.6046 1.38462,-2.8917 1.30919,-3.01377 -0.0363,-0.0588 -0.73545,-0.51018 -1.55361,-1.00313 -5.08399,-3.06317 -10.32514,-7.03739 -15.04173,-11.40573 -0.59186,-0.54815 0.24331,-0.16832 2.58496,1.17565 14.72562,8.45156 29.48072,12.81074 47.79038,14.11896 27.18442,1.94233 62.90889,-8.59104 87.61154,-25.83227 22.93424,-16.00698 41.44618,-40.32779 47.143,-61.93603 0.22615,-0.85782 0.50499,-1.81434 0.61965,-2.12562 0.11466,-0.31129 0.16529,-0.63583 0.11252,-0.72121 -0.13127,-0.21241 -5.45741,-2.84928 -5.75517,-2.84928 -0.35729,0 -0.36096,0.005 -4.34804,6.64546 -6.44327,10.73027 -5.34038,10.01527 -13.93651,9.035 l -4.30595,-0.49104 -21.02134,-0.28884 c -16.96151,-0.23306 -21.63687,-0.2589 -24.20845,-0.13377 -1.75292,0.0853 -5.99447,0.21743 -9.4257,0.29363 -3.43123,0.0762 -10.87685,0.25788 -16.54583,0.4037 -15.9833,0.41115 -25.93127,0.62409 -50.51904,1.08143 -6.48878,0.12069 -18.45444,0.65438 -25.90372,1.15535 -1.67832,0.11287 -6.28606,0.41693 -10.23943,0.67571 -3.95337,0.25877 -8.70392,0.57107 -10.55678,0.694 -4.08133,0.27078 -3.17239,0.96466 -6.6447,-5.0725 -1.5042,-2.61526 -3.18503,-5.52712 -3.73519,-6.4708 -1.27142,-2.18078 -4.94761,-1.77818 28.39586,-3.10976 16.03725,-0.64045 30.77592,-1.25388 32.75261,-1.36318 1.97668,-0.1093 6.27928,-0.29348 9.56132,-0.4093 3.28204,-0.11582 13.60996,-0.48372 22.95094,-0.81754 9.34098,-0.33382 17.74384,-0.60696 18.67305,-0.60696 0.92919,0 1.85189,-0.0617 2.05043,-0.13724 0.20029,-0.0762 12.47538,-0.61921 27.57392,-1.21989 31.56694,-1.25587 29.49876,-1.14772 29.4134,-1.5381 -0.0351,-0.16054 -2.93335,-6.9136 -6.44056,-15.00681 -12.78078,-29.49297 -12.50831,-32.16832 7.02343,-68.963582 2.59991,-4.897876 4.58113,-8.402133 7.36103,-13.019671 3.11878,-5.18046 3.19076,-5.377684 2.41122,-6.606902 -1.71546,-2.705004 5.33329,2.532484 7.28712,5.4146 1.74636,2.576088 7.90308,13.295661 13.65403,23.773295 l 2.27042,4.136458 2.32403,2.347842 c 2.66969,2.69705 2.37158,2.57652 4.39311,1.77626 14.06149,-5.566448 37.71619,-28.199305 48.8181,-46.709278 7.30203,-12.174492 11.4423,-23.346501 13.67083,-36.889068 0.57131,-3.471865 0.86299,-4.180975 1.54039,-3.744955 0.45043,0.289929 1.39409,6.032592 1.43999,8.762953 0.0163,0.969694 0.0966,1.915655 0.1783,2.102134 0.40304,0.919074 0.69663,10.161629 0.4459,14.036834 -1.2782,19.755075 -8.72985,41.082155 -20.32855,58.181656 -7.06962,10.422454 -14.14054,17.532394 -23.87327,24.005024 -3.81891,2.53972 -3.61479,1.98577 -1.74988,4.74877 2.42724,3.59618 3.9293,6.19078 6.00514,10.37304 1.75109,3.52799 2.02771,4.00129 3.17066,5.42486 12.54702,15.62783 16.89742,38.50266 11.207,58.92758 -0.66742,2.39563 -0.78221,2.1898 1.5193,2.72432 2.13829,0.49662 2.20178,0.52061 2.20178,0.83194 0,0.62729 -3.47968,8.16319 -5.15249,11.15868 -6.92356,12.39799 -14.28012,21.39978 -24.3701,29.82024 -1.76525,1.47318 -1.66085,1.29517 -1.52109,2.59331 0.60379,5.60857 0.83234,12.70168 0.5374,16.67812 -0.19773,2.66581 -0.22596,2.62134 1.0505,1.65431 13.75103,-10.4177 30.9072,-9.81093 39.84924,1.40937 0.53892,0.67621 0.53354,0.68438 0.71979,-1.09383 1.81526,-17.33175 14.88664,-29.66404 31.47193,-29.69241 6.63573,-0.0114 14.14179,3.00356 12.47572,5.01104 -0.24444,0.29454 -0.58901,0.24977 -1.46033,-0.1897 -12.18632,-6.14637 -27.18006,-1.24124 -34.32448,11.22908 -2.69843,4.71002 -5.46918,13.48727 -6.12315,19.39702 -0.23585,2.1314 -0.38121,2.1319 -2.40476,0.009 -5.1956,-5.45265 -12.77963,-9.10134 -17.99345,-8.65668 -1.06188,0.0906 -0.39554,0.9529 1.60702,2.0797 9.10605,5.12379 14.32389,16.8085 14.5263,32.52984 0.0258,2.00334 0.0775,3.67298 0.11478,3.71031 0.0373,0.0373 0.68962,-1.17442 1.44954,-2.6928 6.94529,-13.87736 12.10306,-20.26702 19.24876,-23.84615 11.99308,-6.00709 24.88396,-2.63659 35.81509,9.36436 3.23466,3.55122 3.194,3.46683 3.32732,6.90675 0.12059,3.11113 -0.19015,3.50121 -1.39279,1.74845 -2.79921,-4.07957 -10.70624,-7.77992 -15.32228,-7.17056 -10.60098,1.39944 -19.23895,9.76681 -25.02315,24.23926 -2.50877,6.27709 -4.51221,13.74984 -7.08735,26.43559 -2.34094,11.53205 -3.72897,16.77192 -6.2015,23.41114 -0.95232,2.55716 -2.47087,6.01207 -2.81183,6.39732 -0.13425,0.15169 -0.59896,1.13022 -1.03267,2.17451 -3.0805,7.41723 -7.36632,15.36479 -13.81274,25.61418 -1.51206,2.40408 -1.2243,2.37694 -5.17806,0.4885 -0.9697,-0.46315 -2.83111,-1.34681 -4.13646,-1.96367 -1.30536,-0.61686 -3.16677,-1.50055 -4.13646,-1.96375 -0.96969,-0.46318 -2.67853,-1.26918 -3.7974,-1.79107 -2.70682,-1.26259 -4.79723,-2.26286 -11.79908,-5.64589 l -3.25492,-1.57265 -1.42403,-0.005 c -1.03119,-0.003 -1.53626,-0.0646 -1.83089,-0.22046 -8.15871,-4.31682 -13.95351,-5.4418 -23.57696,-4.57711 -2.05929,0.18503 -1.86312,-0.0437 -2.19113,2.55463 -2.29074,18.14616 -11.72125,29.06406 -26.88128,31.12101 l -0.7063,0.0958 -0.6965,1.31038 c -3.72186,7.00218 -11.26385,13.75419 -13.92814,12.46924 z m 51.69662,-90.23957 c 0.70043,-0.84275 2.23468,-2.80659 3.63674,-4.65501 0.42877,-0.56529 0.77969,-1.15763 0.77983,-1.31633 1.3e-4,-0.15869 0.0918,-0.36451 0.20367,-0.45738 0.88916,-0.73793 -4.05963,-5.86351 -7.96869,-8.25337 -3.64834,-2.23046 -7.54281,-3.33684 -8.47265,-2.40699 -0.26138,0.26137 3.12799,5.89588 4.72915,7.86177 1.62756,1.99832 1.82323,2.30796 3.86521,6.11682 2.40694,4.48957 2.22572,4.31488 3.22674,3.11049 z m 13.44119,-170.39948 c 1.47073,-1.13466 5.25228,-5.8244 6.61517,-8.20389 3.43982,-6.0056 5.03842,-13.63221 5.04125,-24.05075 l 10e-4,-5.47365 -0.43181,-0.35808 c -0.2375,-0.19694 -1.46335,-1.01799 -2.72412,-1.82456 l -2.2923,-1.46651 -0.50737,-2.46652 c -0.63389,-3.08157 -0.55336,-3.03655 -1.64347,-0.91858 -1.73135,3.36386 -1.8742,3.38865 -5.79108,1.005 l -1.89493,-1.15318 -0.40717,0.38508 c -2.57094,2.43151 -7.25687,9.61423 -10.15326,15.56321 -3.65898,7.51527 -8.35934,21.01321 -7.41569,21.29551 0.0932,0.0279 0.7188,0.21468 1.39012,0.41508 0.67133,0.20041 1.40369,0.44658 1.62746,0.54704 0.22378,0.10047 1.83212,0.70485 3.57409,1.3431 4.33596,1.58866 11.97488,4.76809 13.68475,5.69579 0.51861,0.28137 0.53419,0.27746 1.32686,-0.33409 z M 221.9571,416.12054 c -2.51045,-1.73648 -4.70807,-5.58114 -5.90941,-10.33829 -0.1799,-0.71241 -0.27277,-0.71628 -0.81321,-0.0338 -1.82366,2.30255 -2.06665,-2.3253 -0.38811,-7.39138 0.64292,-1.94041 1.7018,-4.18386 3.34535,-7.08776 1.80869,-3.19569 2.32447,-4.737 2.14852,-6.42043 -0.0718,-0.68766 -0.24599,-1.22396 -0.99721,-3.07155 -0.0379,-0.0932 -0.002,-0.16953 0.0798,-0.16953 0.23764,0 2.05312,1.20597 2.13443,1.41784 0.4173,1.08749 3.86762,2.10773 7.12963,2.10822 1.17477,1.6e-4 0.97801,0.47454 -1.18147,2.8484 -3.01734,3.31689 -4.15954,10.92559 -2.71632,18.09464 0.30341,1.50718 0.31499,1.70093 0.14491,2.42495 -0.28275,1.20359 -0.47479,2.92874 -0.58999,5.2999 -0.14093,2.90066 -0.72524,3.4683 -2.38694,2.31889 z m -83.281,-69.78615 c -5.9489,-0.43502 -9.84781,-1.17637 -13.21042,-2.51188 -6.09908,-2.42235 -11.07721,-7.12486 -13.9462,-13.17404 -0.76192,-1.6065 -0.76276,-1.60592 1.28513,-0.88958 13.89285,4.8596 26.29872,5.70713 41.02795,2.80286 1.77196,-0.34939 3.25556,-0.60144 3.2969,-0.56011 0.0911,0.0911 -2.04881,4.69309 -2.3234,4.99651 -0.10698,0.11817 -0.19443,0.28284 -0.19443,0.36596 0,0.0831 -0.45648,1.19275 -1.01439,2.46583 -0.55792,1.2731 -1.28373,2.97015 -1.61291,3.77124 -0.98636,2.40033 -1.15158,2.65716 -1.7813,2.76885 -0.7276,0.12904 -9.65218,0.10144 -11.52693,-0.0356 z M 105.381,325.21764 c 0,-0.0589 0.18035,-0.68447 0.40078,-1.39012 0.78212,-2.50377 0.81566,-2.77576 0.81781,-6.63329 0.002,-4.00316 0.14534,-4.41996 0.39813,-1.15956 0.0926,1.19347 0.3745,3.40713 0.62659,4.91923 0.50705,3.04144 0.50558,3.07243 -0.15709,3.29112 -0.25664,0.0847 -0.77613,0.36229 -1.15442,0.61687 -0.68871,0.46346 -0.9318,0.55627 -0.9318,0.35575 z M 94.531269,313.5162 c 0,-0.75249 2.639098,-3.33303 5.612781,-5.48825 5.03405,-3.64849 6.36685,-5.49618 7.38246,-10.23445 l 0.24708,-1.15272 0.50959,-0.12823 c 1.11257,-0.27996 1.1926,0.22267 0.44153,2.77285 -0.6638,2.25387 -1.24888,5.18437 -1.51631,7.59481 -0.27375,2.46745 -0.35329,2.64858 -1.15589,2.63261 -4.05928,-0.0807 -8.09429,1.27027 -10.728321,3.59215 -0.660792,0.58249 -0.79292,0.65102 -0.79292,0.41123 z m 22.554291,-19.65408 c -1.80529,-0.38249 -3.18916,-1.27023 -5.53208,-3.54875 -2.01259,-1.95726 -2.02696,-2.01144 -0.4093,-1.54265 10.40397,3.01495 16.89073,-1.03142 13.67439,-8.52994 -0.25837,-0.60235 -0.50248,-1.17147 -0.54248,-1.26471 -0.29215,-0.68111 2.12679,0.63971 3.27575,1.78868 5.5879,5.58791 -1.86867,14.91898 -10.46628,13.09737 z m 316.49309,-11.15645 c -0.25497,-0.96278 -1.22667,-3.90613 -1.50026,-4.54438 -0.34075,-0.79494 -0.28835,-0.83544 0.78925,-0.60999 2.55405,0.53431 4.17512,-0.54489 5.81571,-3.87173 0.6514,-1.32093 0.75155,-1.38864 1.18839,-0.80354 1.05844,1.41765 -0.42905,5.04718 -3.83392,9.35496 l -0.83077,1.05107 h -0.73787 -0.73788 z m -9.04071,-17.088 c -1.97391,-2.21204 -4.37934,-4.46114 -6.55286,-6.12698 -1.01561,-0.77838 -0.93875,-0.85556 0.54964,-0.55199 5.08734,1.03762 8.50693,-0.85691 7.91573,-4.3855 -0.23694,-1.41412 -0.17987,-1.62095 0.29501,-1.06921 1.14165,1.32641 0.94989,5.31081 -0.51378,10.67543 -0.60811,2.22882 -0.8332,2.42261 -1.69374,1.45825 z m -16.44958,-11.56881 c -0.70725,-0.30547 -4.70763,-1.65072 -5.67242,-1.90753 -0.69711,-0.18556 -0.53433,-0.36373 0.54631,-0.598 3.43331,-0.74428 4.77865,-3.18271 3.76838,-6.83023 -0.49459,-1.7857 -0.46115,-1.97524 0.30395,-1.72274 1.56965,0.51803 2.82009,4.10481 3.16329,9.07361 l 0.0966,1.39891 -0.45155,0.46588 c -0.52518,0.54185 -0.74349,0.55679 -1.75458,0.1201 z M 209.71615,62.40573 c 0.52609,-7.430767 0.79829,-19.908401 0.46915,-21.50517 -0.0202,-0.09773 0.0731,-0.177699 0.20731,-0.177699 0.38026,0 3.89252,8.867479 3.89252,9.827523 0,0.254503 0.11112,0.588062 0.24726,0.74222 0.76824,0.869887 3.19474,11.061044 2.78777,11.708464 -0.18073,0.287517 -0.95322,0.368128 -4.86713,0.507894 l -2.82211,0.100783 z"
       id="path10"
       inkscape:label="Multiply Shading" /><path
       style="display:inline;fill:#000000;stroke-width:1.08497"
       d="m 326.17293,499.52001 c -0.33567,-0.0284 -1.46472,-0.11709 -2.509,-0.19701 -18.67657,-1.42941 -29.85875,-9.1265 -39.25847,-27.02298 -0.75878,-1.44467 -1.03254,-1.85373 -1.20494,-1.8004 -16.26395,5.03089 -36.93879,6.44135 -61.59183,4.20183 -17.85658,-1.62212 -31.10369,-4.94221 -42.46233,-10.64224 l -1.30124,-0.653 -2.4962,2.31558 c -21.44133,19.8899 -34.94123,24.92361 -50.30279,18.75642 -23.09237,-9.27087 -45.369152,-52.88175 -37.479398,-73.37282 4.898684,-12.72272 21.401158,-21.67721 49.474398,-26.84555 1.93652,-0.35651 2.10335,-0.43759 2.10842,-1.02468 0.004,-0.46494 1.00941,-6.58379 1.43733,-8.74759 0.41753,-2.11123 0.91068,-4.11511 1.88576,-7.66262 1.10314,-4.01339 3.56762,-11.81398 4.89452,-15.49215 0.40406,-1.12002 0.73464,-2.05941 0.73464,-2.08753 0,-0.0281 -1.38843,-0.0531 -3.08539,-0.0553 -20.86657,-0.0288 -32.11811,-6.28731 -37.1838,-20.68313 l -0.50362,-1.43121 -0.86762,0.57937 c -0.47719,0.31867 -1.51053,1.20854 -2.29631,1.97752 -0.78577,0.76897 -1.5664,1.43318 -1.73472,1.47602 -3.788344,0.96399 -3.959145,-11.54036 -0.24129,-17.66417 0.74937,-1.23432 0.78391,-1.1657 -0.46667,-0.92741 -2.373544,0.45226 -4.821097,1.70655 -7.114675,3.64606 -5.199123,4.39648 -4.216811,-8.98753 1.155127,-15.73853 2.770152,-3.4813 8.663748,-6.56096 12.562218,-6.56431 0.51027,-4.3e-4 0.51742,-0.008 0.91278,-0.97201 l 0.39848,-0.97156 -1.2481,-1.1958 c -3.38377,-3.24198 -5.2071,-3.8403 -11.913929,-3.90947 -1.834884,-0.0189 -1.585828,-1.91574 0.465562,-3.54572 10.184857,-8.09266 18.539367,-10.41584 26.944617,-7.49263 1.92029,0.66786 1.80117,0.66106 3.27924,0.18679 3.22453,-1.03465 6.69945,-1.59869 10.6032,-1.72105 2.44501,-0.0766 2.74237,-0.11039 2.66107,-0.3021 -0.0503,-0.11869 -0.14165,-0.86213 -0.20293,-1.65209 -0.27161,-3.50128 -1.87909,-13.88224 -2.19416,-14.16962 -0.0181,-0.0165 -0.55165,-0.41281 -1.18567,-0.88067 -13.64326,-10.06771 -21.55341,-21.90439 -24.32908,-36.40585 -1.76375,-9.21464 -0.81988,-20.48747 2.30969,-27.58521 l 0.32281,-0.73214 -0.27833,-0.19496 c -0.35304,-0.24727 -0.46337,-0.42549 -3.0448,-4.9184 -3.0524,-5.31262 -5.57818,-9.70384 -7.29374,-12.68062 -0.81678,-1.41725 -2.90522,-5.04852 -4.640984,-8.06949 -1.735764,-3.02097 -3.719354,-6.46914 -4.407964,-7.66261 -5.357259,-9.28493 -5.368868,-9.31 -6.245244,-13.48723 -1.527489,-7.28067 -0.830253,-13.55966 2.134716,-19.22444 0.831654,-1.58893 3.740888,-6.42782 7.963212,-13.24508 2.456214,-3.96576 4.531794,-7.26857 13.818944,-21.98967 1.78821,-2.834491 4.65551,-7.381205 6.37178,-10.103808 5.70645,-9.05237 7.41083,-10.798476 12.87717,-13.192437 5.84646,-2.560431 6.19796,-2.589424 58.82607,-4.85204 l 3.59397,-0.154514 0.30702,-0.360109 c 1.43968,-1.688604 3.83893,-5.187354 5.82708,-8.497405 2.51367,-4.185005 4.10921,-7.388833 6.48391,-13.019671 1.14202,-2.707953 1.76279,-3.206825 3.22839,-2.594457 2.16963,0.906528 7.52831,13.977081 8.98702,21.920532 0.13012,0.708623 0.2748,1.334325 0.3215,1.390451 0.0466,0.05613 12.36174,-0.416855 27.36676,-1.051067 15.00501,-0.634213 28.42834,-1.152551 29.82963,-1.151863 8.48061,0.0041 15.68123,2.23045 20.12947,6.22363 l 0.76461,0.686383 1.47013,-1.726456 c 6.44434,-7.567902 15.18748,-14.03471 26.90311,-19.898697 6.9212,-3.464241 11.04625,-5.08057 24.69589,-9.676653 10.55712,-3.554774 13.90592,-4.950629 18.63731,-7.768427 5.51516,-3.284575 10.97013,-8.632824 13.04501,-12.789813 1.0544,-2.112459 1.73625,-2.669469 2.75248,-2.248532 2.56148,1.060997 5.05264,20.747123 3.96458,31.32959 -3.41772,33.240895 -20.83405,65.039733 -44.10614,80.529293 -1.15618,0.76952 -2.10213,1.44199 -2.10213,1.49436 0,0.0524 0.67875,1.16324 1.50836,2.4686 2.11956,3.33506 3.76957,6.25321 5.4063,9.56132 1.09214,2.20741 1.62615,3.12043 2.37404,4.05897 12.39502,15.55493 17.67289,41.31601 12.06108,58.86971 -0.30273,0.94692 -0.53098,1.73703 -0.50723,1.7558 0.0238,0.0188 0.56192,0.16218 1.19595,0.3187 9.45411,2.33386 26.41523,10.85579 36.3005,18.23878 9.88687,7.38419 21.2418,19.78727 21.2418,23.20259 0,1.62836 -1.03135,2.20248 -2.68337,1.49374 -2.88068,-1.23585 -5.29863,-1.92603 -7.93386,-2.26463 -0.78322,-0.10069 -1.43589,-0.17613 -1.45039,-0.16777 -0.0145,0.009 0.18498,0.57789 0.44331,1.26561 0.90303,2.40416 1.54956,5.92811 1.54956,8.44597 0,0.66751 0.025,1.21365 0.0553,1.21365 0.0305,0 0.77805,-0.38449 1.66136,-0.85442 5.71042,-3.03801 9.69064,-3.86434 12.51288,-2.5978 3.52651,1.58261 3.94396,6.01835 1.42973,15.19208 -0.6018,2.19576 -0.73808,2.03463 1.80841,2.13802 14.30655,0.58092 16.26793,5.80507 6.567,17.49136 l -0.8781,1.05781 0.18685,1.519 c 0.44646,3.62936 0.1604,8.89285 -0.53584,9.85972 -0.86065,1.19517 -1.99408,1.00012 -3.15239,-0.54249 -5.76536,-7.67812 -15.35204,-9.35196 -23.2761,-4.06402 -10.37515,6.9236 -15.65606,18.15718 -21.13286,44.95393 -3.2002,15.65787 -5.35173,22.84274 -9.21893,30.7861 -0.61735,1.26806 -1.44809,3.06843 -1.84608,4.00083 -2.37483,5.56368 -6.66787,13.54308 -11.52664,21.42435 l -2.12968,3.4545 2.59729,1.33757 c 15.37884,7.91996 23.60792,14.29058 29.06374,22.49997 19.10813,28.75208 -7.46474,67.43281 -52.51981,76.45036 -5.35534,1.07185 -12.8145,1.72297 -16.32838,1.42534 z m 6.57764,-4.26705 c 17.13863,-1.26498 36.98415,-9.77681 48.41431,-20.76512 20.67061,-19.87153 21.25913,-44.31058 1.44715,-60.09386 -5.61553,-4.47363 -16.1619,-10.70024 -24.2496,-14.31704 -0.68268,-0.30529 -3.12387,-1.45023 -5.42487,-2.5443 -2.30101,-1.09409 -6.80792,-3.22715 -10.01537,-4.74013 -3.20745,-1.51299 -7.11335,-3.37351 -8.67978,-4.13449 -1.56643,-0.76098 -4.22123,-2.02071 -5.89954,-2.7994 -4.05705,-1.88233 -4.8213,-2.87766 -3.4557,-4.50058 1.06954,-1.27108 1.66276,-1.09116 10.44021,3.16647 3.37568,1.63742 8.22901,3.95299 8.95103,4.27061 0.48841,0.21486 2.57379,1.20324 11.79907,5.59219 1.56643,0.74524 2.98263,1.40671 3.1471,1.46994 0.27154,0.10438 0.39141,-0.031 1.30386,-1.4729 5.48867,-8.6734 10.16052,-17.28219 12.96883,-23.89762 0.55414,-1.30536 1.13562,-2.58697 1.29219,-2.84805 2.96477,-4.94356 6.1336,-15.30942 9.01742,-29.49769 3.84084,-18.89683 6.42286,-27.03565 11.25236,-35.46876 9.53132,-16.6433 25.89718,-21.65858 36.7968,-11.27629 l 0.77982,0.74281 -7.3e-4,-0.3936 c -4e-4,-0.21649 -0.12416,-1.23426 -0.27499,-2.2617 -3.22978,-21.9994 -19.94406,-36.17376 -42.65575,-36.17376 h -1.52751 l -0.62918,0.98326 c -3.15743,4.93434 -7.13962,17.01767 -7.1848,21.80116 -0.0258,2.73976 -1.85125,3.66616 -3.24916,1.64898 -4.36056,-6.2923 -14.08884,-10.84204 -21.52917,-10.0688 -6.96622,0.72397 -9.05958,1.96857 -13.0483,7.75783 l -0.89879,1.30451 0.68093,0.89951 c 6.93894,9.16612 14.45423,26.96208 17.33869,41.05747 3.05134,14.91075 1.88995,31.94831 -1.98079,29.05838 -0.38895,-0.2904 -0.68515,-0.92213 -1.74015,-3.71147 -7.77972,-20.56878 -16.54932,-29.63218 -24.81305,-25.64437 -3.80367,1.83553 -8.79916,7.52874 -11.82164,13.47275 -1.53405,3.01687 -2.2313,3.43144 -3.50533,2.08418 l -0.6899,-0.72956 -2.16318,2.69989 c -1.18976,1.48494 -2.18383,2.76009 -2.20906,2.83369 -0.0253,0.0736 0.3476,1.06362 0.82851,2.20004 1.30761,3.08994 4.97999,12.74053 5.60699,14.73449 0.64421,2.04871 -0.8173,3.6497 -2.65903,2.91279 -0.81218,-0.32498 -0.94911,-0.59727 -2.69809,-5.36544 -4.97464,-13.56218 -8.59428,-21.35799 -16.49802,-35.53268 -10.0017,-17.93722 -14.44947,-29.41857 -15.18762,-39.2049 -0.0573,-0.75968 -0.14612,-1.18627 -0.24685,-1.18552 -0.0866,6.4e-4 -1.22538,0.20922 -2.53073,0.4635 -22.32348,4.34855 -49.69173,5.41 -74.88565,2.90437 l -2.93838,-0.29223 -0.85902,0.71275 c -8.53559,7.08223 -22.914,24.39537 -30.92417,37.23597 -5.35574,8.58546 -12.32375,22.73693 -14.69354,29.84142 -0.19819,0.59416 -0.54708,1.5075 -0.77531,2.02965 -1.69058,3.86778 -6.16594,18.47609 -7.35412,24.00501 -4.09379,19.04966 -3.06422,34.02532 3.51324,51.10202 8.42998,21.88626 28.07389,37.14504 54.67854,42.47258 20.7992,4.165 47.4154,4.96662 65.26614,1.96566 3.67309,-0.6175 12.81556,-2.80732 13.1057,-3.1391 0.0206,-0.0236 -0.43748,-1.11089 -1.018,-2.41624 -0.5805,-1.30536 -1.75889,-4.0517 -2.61862,-6.10297 -0.85975,-2.05128 -2.02983,-4.82813 -2.6002,-6.17078 -2.05879,-4.84635 -7.44167,-17.83956 -9.57731,-23.11772 -1.39904,-3.4577 -1.39553,-4.34629 0.02,-5.05746 1.6117,-0.80975 2.41504,-0.13587 3.71572,3.11692 0.47026,1.17601 1.58965,3.90807 2.48755,6.07124 0.8979,2.16316 2.39734,5.79442 3.3321,8.06948 0.93475,2.27505 2.28981,5.50962 3.01124,7.18794 0.72143,1.67832 2.16324,5.09089 3.20402,7.5835 8.19126,19.61748 14.26254,28.53269 23.00948,33.78767 6.90476,4.14824 18.24681,6.42607 28.30205,5.6839 z m -77.10086,-72.24084 c -0.65049,-0.23778 -1.22068,-1.12451 -1.22042,-1.8979 0.001,-3.07095 -2.16906,-11.66727 -3.96459,-15.70493 -0.69345,-1.55938 -0.63175,-1.51163 -2.08709,-1.61473 l -1.23693,-0.0877 -0.58499,0.9868 c -6.13005,10.34073 -14.71906,18.37284 -17.0141,15.91093 -3.94266,-4.2293 -6.92357,-13.57604 -6.82316,-21.39415 0.0449,-3.49649 0.008,-3.73608 -0.58801,-3.76508 -0.6839,-0.0333 -5.9006,9.78378 -6.62135,12.46043 -1.03979,3.86147 -7.57328,-1.94796 -10.22489,-9.09174 -3.05561,-8.2322 -2.8323,-16.95885 0.54523,-21.30662 l 0.60397,-0.77748 -0.34011,-0.94288 c -5.22458,-14.48376 0.95345,-35.39782 16.26739,-55.06892 7.70381,-9.8957 18.19546,-20.99156 25.10667,-26.55252 1.44922,-1.16609 2.92182,-0.88843 3.11984,0.58823 0.12072,0.90024 -0.14361,1.22413 -5.02661,6.15894 -6.82705,6.8995 -11.4292,12.00933 -17.54298,19.47821 -15.8987,19.4226 -22.67316,39.13346 -18.25581,53.11684 l 0.33765,1.06887 0.97397,-0.089 c 5.49681,-0.50183 13.62941,5.88967 14.75405,11.59536 0.0956,0.48484 0.19033,0.90485 0.21056,0.93334 0.0202,0.0285 0.38366,-0.2652 0.8076,-0.65266 5.60316,-5.12096 21.24739,-0.7224 22.8466,6.4236 l 0.16591,0.74135 0.82756,-0.75281 c 5.59837,-5.09255 19.66679,-4.08088 23.56863,1.69484 0.2345,0.34715 0.44138,0.65097 0.45971,0.67518 0.0682,0.0902 2.6101,-1.52533 3.79117,-2.40952 7.18615,-5.37985 11.68209,-14.68853 13.00613,-26.92875 0.84854,-7.84452 0.36967,-26.31501 -1.09003,-42.04269 -0.77909,-8.39444 -0.69007,-9.15445 1.0723,-9.15445 1.3218,0 1.46297,0.34467 2.11788,5.17073 2.30651,16.99705 3.13061,36.71685 1.96881,47.11138 -1.70062,15.21532 -8.17806,26.24706 -18.72027,31.88255 l -1.23507,0.66023 -0.16473,1.29161 c -0.75033,5.8833 -6.46048,14.51894 -12.65358,19.13637 -2.93017,2.18469 -6.04507,3.55505 -7.15691,3.14861 z m 4.74068,-6.10565 c 6.81253,-5.60117 12.17642,-15.22684 10.77578,-19.33748 -1.17966,-3.46211 -11.05893,-5.19067 -15.97285,-2.79475 -3.17925,1.55015 -3.49871,3.3203 -1.44206,7.99043 2.03641,4.62413 4.06839,12.09529 4.06839,14.95859 0,1.14775 0.29554,1.05386 2.57074,-0.81679 z M 233.11364,415.547 c 8.82928,-9.50183 14.00543,-18.93139 12.286,-22.38182 -1.52844,-3.0672 -10.67219,-5.94025 -14.36525,-4.5137 -5.51482,2.13026 -5.61448,17.40909 -0.17853,27.3702 0.68174,1.24923 0.64961,1.25599 2.25778,-0.47468 z m -19.10838,-14.13855 c 1.4791,-3.54779 3.31655,-6.68599 5.75131,-9.8227 2.42621,-3.12572 2.56687,-3.75123 1.38086,-6.1409 -1.81058,-3.64809 -7.54287,-7.42216 -10.16021,-6.68935 -5.4963,1.53886 -4.49542,18.68464 1.45531,24.93068 l 0.42572,0.44682 0.16358,-0.37901 c 0.0899,-0.20847 0.5325,-1.26396 0.98343,-2.34554 z m -72.27768,80.84749 c 8.34057,-1.46889 18.31021,-7.85285 30.97497,-19.83452 l 1.20602,-1.14098 -1.64677,-0.99495 c -22.00937,-13.29753 -35.74738,-41.73414 -33.81675,-69.99801 0.16056,-2.35046 0.34891,-2.11591 -1.41903,-1.7671 -44.76127,8.83105 -55.176167,23.20131 -40.941656,56.49041 10.875116,25.43277 28.953106,40.18452 45.643216,37.24515 z m 8.75671,-139.13086 c 8.33828,-19.88055 17.72123,-35.0401 31.48861,-50.8746 1.04277,-1.19934 1.26034,-0.9624 -2.19596,-2.39147 -24.06247,-9.94906 -37.11452,-12.90822 -47.7463,-10.82505 -2.14354,0.42 -2.09146,0.37504 -1.47879,1.27663 6.11566,8.99972 -6.94752,20.62341 -16.87208,15.01287 -0.39603,-0.22388 -0.73974,-0.38525 -0.7638,-0.3586 -1.29551,1.43531 -3.46587,12.26647 -3.46622,17.29814 -10e-4,20.0465 9.29984,30.79932 28.07356,32.45494 2.51327,0.22164 2.56893,0.22348 7.47954,0.24824 l 4.6993,0.0236 z m 206.97346,-8.88322 c -0.58666,-17.80412 -8.82086,-41.1457 -19.64151,-55.67806 -1.6564,-2.22458 -1.45481,-2.1638 -3.07022,-0.92556 -4.76658,3.65366 -8.95853,7.74407 -12.683,12.37577 -1.06942,1.32991 -1.94931,1.58449 -3.21472,0.93011 -1.05349,-0.54477 -1.07394,-1.20365 -0.15169,-4.88748 1.13178,-4.52076 2.97447,-13.53783 2.83866,-13.89075 -0.0227,-0.059 -0.77064,0.4389 -1.66205,1.10644 -7.62076,5.70682 -18.69671,9.8787 -33.16617,12.49238 l -1.01716,0.18373 0.038,0.45609 c 0.24375,2.92748 6.89316,17.8392 12.24501,27.46019 1.8191,3.27019 1.60091,2.99776 2.47299,3.08776 3.66875,0.37865 10.4893,4.82793 14.73193,9.61015 0.55405,0.62453 1.07966,1.21645 1.16802,1.3154 0.12858,0.14402 0.31986,-0.0725 0.95867,-1.08497 8.40643,-13.32419 17.77143,-16.94748 26.62535,-10.30127 4.27127,3.20623 10.33768,12.11887 13.04882,19.17107 0.59461,1.54668 0.57848,1.59455 0.4791,-1.421 z m -46.76305,-2.24261 c 1.97381,-2.48774 1.97598,-1.97451 -0.0165,-3.9105 -2.98944,-2.90465 -4.98217,-4.45052 -7.13374,-5.53403 l -0.94095,-0.47385 0.73646,1.3846 c 1.70895,3.21299 3.41837,6.70362 5.02212,10.25525 0.27917,0.61823 0.35914,0.70339 0.50948,0.54249 0.0981,-0.10503 0.91852,-1.12376 1.82317,-2.26396 z m -204.91379,-8.72122 c 0.3022,-0.16984 0.54944,-0.36694 0.54944,-0.43799 0,-0.0711 -0.12882,-0.89898 -0.28626,-1.83982 -0.15743,-0.94085 -0.36125,-2.41248 -0.45292,-3.27028 l -0.16669,-1.55965 -0.48403,1.01716 c -0.86109,1.80949 -1.7294,5.46008 -1.7294,7.27087 v 0.73407 l 1.01021,-0.80278 c 0.55562,-0.44152 1.25746,-0.94174 1.55965,-1.11158 z m -9.797731,-12.68128 c 2.037362,-1.39403 4.980511,-2.29429 8.396311,-2.56828 l 1.10064,-0.0883 0.22982,-1.78448 c 0.25841,-2.00639 0.88706,-5.23655 1.29742,-6.66643 0.38797,-1.35186 0.41667,-1.31152 -0.71093,-0.99938 -5.47077,1.51437 -9.57919,6.0538 -10.877078,12.0182 -0.115701,0.53171 -0.08973,0.5358 0.563817,0.0886 z m 25.345561,-18.3618 c 6.51115,-1.63499 8.81049,-8.02916 4.02866,-11.20316 -5.34903,-3.55047 -14.17623,-2.80612 -21.03451,1.77374 -1.08218,0.72268 -1.07949,0.7479 0.10876,1.01809 2.66205,0.60532 4.71283,1.90925 8.00167,5.08763 3.55502,3.43565 5.52233,4.1707 8.89542,3.3237 z m 66.90962,-6.97077 c 1.295,-1.37136 3.10552,-3.19996 4.02337,-4.06356 l 1.66884,-1.57018 -0.43511,-0.0727 c -0.23931,-0.04 -1.19799,-0.1964 -2.13038,-0.34756 -12.7168,-2.0616 -27.09645,-6.52528 -36.85904,-11.44164 l -0.9441,-0.47544 -1.40776,0.8472 c -3.02522,1.82057 -5.20677,3.37908 -7.33679,5.24142 l -1.16335,1.01716 0.42689,0.093 c 0.23479,0.0511 1.15925,0.19093 2.05435,0.31068 8.44614,1.12994 21.22099,5.23669 36.88907,11.85876 1.41725,0.59899 2.64041,1.09072 2.71814,1.09271 0.0778,0.002 1.20088,-1.1184 2.49587,-2.48976 z m 140.81513,-8.16648 c 18.27528,-16.15209 34.16118,-18.12711 47.1064,-5.85651 l 0.96108,0.911 0.24052,-1.38567 c 0.59135,-3.40698 2.23121,-9.19205 3.56438,-12.57445 5.96407,-15.13138 19.46264,-22.31016 34.39044,-18.28941 0.58144,0.15661 1.09115,0.25076 1.1327,0.20922 0.22951,-0.22953 -9.7253,-9.86729 -13.12546,-12.70742 -13.59533,-11.35609 -37.62953,-22.51167 -48.50038,-22.51167 h -0.81265 l -0.36967,1.04131 c -2.42111,6.81991 -8.67171,18.48752 -12.99238,24.25211 -3.09623,4.13097 -8.71916,9.77768 -12.76383,12.81784 -1.05724,0.79468 -1.29103,1.03331 -1.2427,1.26844 0.0546,0.26542 0.27965,4.92012 0.40425,8.35909 0.0284,0.78321 0.11764,2.21741 0.19835,3.18711 0.29523,3.5467 -0.27159,9.43707 -1.76125,18.30302 -0.37331,2.2218 -1.23823,6.67063 -1.42495,7.32946 -0.0423,0.14918 -0.10568,0.37511 -0.14101,0.50207 -0.0353,0.12695 0.74771,-0.597 1.73994,-1.60877 0.99223,-1.01177 2.52053,-2.47281 3.39622,-3.24677 z m -39.90525,3.99885 c 16.1561,-3.63127 25.85231,-8.08203 32.50453,-14.92027 l 0.97251,-0.9997 0.20796,-2.03433 c 0.3676,-3.59612 0.41802,-4.73321 0.20403,-4.60143 -0.10286,0.0634 -0.82789,0.5798 -1.6111,1.14765 -10.18416,7.38374 -21.49477,12.58001 -34.9111,16.03871 l -2.29411,0.59141 0.0298,1.00664 c 0.0302,1.01732 0.21468,3.09428 0.37026,4.167 0.0826,0.56965 0.0947,0.5815 0.50891,0.49783 0.23337,-0.0472 2.0416,-0.44923 4.01828,-0.89351 z m 147.23066,-2.12081 c 3.04527,-4.55721 3.00723,-5.51057 -0.25,-6.26496 -1.38758,-0.32137 -5.12049,-0.77724 -5.12049,-0.62533 0,0.0437 0.40121,0.88018 0.89158,1.85877 0.99365,1.98294 1.86969,4.07576 2.43272,5.81168 0.20563,0.63403 0.40494,1.20685 0.4429,1.27294 0.089,0.15491 0.35831,-0.18999 1.60329,-2.0531 z m -193.68105,-1.37881 c 37.76949,-2.07508 60.67293,-8.91395 79.42419,-23.71569 l 0.80998,-0.63936 -0.0826,-2.03433 c -0.0455,-1.11887 -0.13986,-2.85823 -0.20988,-3.86521 -0.36443,-5.2413 -0.30302,-5.4459 2.19808,-7.32357 8.82234,-6.62322 15.53235,-15.27927 21.44682,-27.6668 2.96827,-6.21687 3.83516,-8.0327 4.25705,-8.91706 0.63682,-1.33489 0.72546,-1.174 -2.36688,-4.29679 -7.65178,-7.72714 -18.57738,-15.7857 -29.52869,-21.77992 -6.78144,-3.71184 -19.48452,-9.4169 -19.70347,-8.84901 -0.92519,2.39974 -9.15364,17.80535 -9.70838,18.1764 l -0.659,0.44077 h -21.50644 c -13.61126,0 -21.78326,-0.0494 -22.26052,-0.13442 -0.41474,-0.0739 -1.57798,-0.26229 -2.58497,-0.41858 -4.88178,-0.75768 -6.65956,-1.80368 -12.07786,-7.10627 -4.34831,-4.25543 -5.72484,-5.19092 -8.67515,-5.89558 l -1.09977,-0.26268 -23.21634,0.80732 c -25.06343,0.87154 -24.18415,0.81542 -26.13504,1.66801 -2.31813,1.01309 -3.63142,2.16522 -7.56154,6.63362 -4.58873,5.21721 -6.4485,6.31632 -12.9823,7.67237 -1.50489,0.31233 -2.38351,0.37988 -18.8514,1.44925 -13.29933,0.86362 -11.74383,0.65379 -12.2048,1.64624 -7.93564,17.08501 -2.91552,39.5202 12.08532,54.00981 19.85301,19.17644 48.59002,28.95858 89.83316,30.57937 2.40961,0.0947 18.8984,-0.0426 21.3604,-0.17789 z m -66.45458,-59.02251 c -5.7405,-1.49978 -11.28164,-7.28668 -12.49929,-13.05365 -0.89695,-4.24808 4.10213,-5.41827 5.15974,-1.20782 0.60521,2.40945 3.29844,6.06227 5.57533,7.56184 3.91643,2.57938 7.49444,1.54299 13.09014,-3.79162 4.94933,-4.71839 7.04395,-4.78846 12.40786,-0.41509 4.60721,3.7564 7.69076,4.76433 11.01556,3.60065 2.94283,-1.02999 6.72262,-5.35502 8.18444,-9.36501 0.80778,-2.21591 1.83192,-2.98854 3.40122,-2.56597 3.07036,0.82676 2.27219,5.17901 -1.98472,10.82223 -6.63396,8.79438 -14.78609,9.47259 -23.80361,1.98034 -3.07628,-2.55594 -2.87816,-2.55807 -5.62829,0.0603 -5.56545,5.2989 -10.67569,7.48221 -14.91838,6.37375 z m -28.92186,47.86064 c 2.05497,-1.49609 2.00184,-1.29216 0.54305,-2.08451 -0.65268,-0.3545 -2.02591,-1.14841 -3.05161,-1.76424 -1.56815,-0.9415 -1.85521,-1.07269 -1.804,-0.82436 0.28535,1.38351 0.75014,5.30417 0.75183,6.3418 0.002,1.02091 0.0508,1.03368 1.00412,0.26094 0.4554,-0.36914 1.60587,-1.23747 2.55661,-1.92963 z m 277.90642,-4.85245 c 1.76555,-7.95934 0.3903,-9.13104 -6.73052,-5.73432 -1.89057,0.90183 -1.84375,0.75851 -0.54248,1.66081 1.63213,1.13171 3.54505,2.72173 5.2184,4.33754 0.84082,0.81191 1.56924,1.43556 1.61871,1.3859 0.0495,-0.0497 0.24561,-0.79213 0.43589,-1.64993 z m -16.59753,-9.73085 c -0.002,-2.22219 -1.09135,-6.26484 -1.93711,-7.18795 -0.84664,-0.92408 -5.36361,1.68861 -8.20438,4.74557 l -0.30945,0.33301 1.46224,0.23784 c 2.06705,0.33623 4.67429,1.02131 6.88711,1.80969 1.04429,0.37205 1.94448,0.68311 2.00042,0.69125 0.056,0.008 0.10144,-0.2751 0.10123,-0.62941 z m -49.9082,-50.93812 c 0,-0.30506 -2.09743,-4.41988 -2.91452,-5.7178 -6.77926,-10.76859 -21.49634,-22.19272 -38.02897,-29.51999 -4.35137,-1.92852 -12.19076,-4.97798 -15.33946,-5.96692 -0.70863,-0.22256 -1.59355,-0.51706 -1.96651,-0.65444 -0.66037,-0.24324 -4.07788,-1.25433 -4.87232,-1.44151 l -0.39681,-0.0935 0.27885,0.46145 c 0.15336,0.25381 0.99427,1.71257 1.86867,3.24171 0.8744,1.52912 1.60254,2.79413 1.61807,2.81111 0.0155,0.017 0.54433,0.18044 1.17513,0.36322 4.15869,1.20515 14.6713,6.00744 21.55755,9.84777 12.80895,7.14332 23.82417,15.69548 33.06737,25.67339 l 0.72598,0.78369 1.30834,0.17831 c 1.77444,0.24185 1.91863,0.24437 1.91863,0.0335 z m 3.09888,-6.53153 c 2.64204,-16.25756 -1.28338,-34.11625 -10.40377,-47.33193 -5.89693,-8.54481 -15.9089,-16.81503 -29.1095,-24.04544 -2.92217,-1.60058 -9.42822,-4.44162 -9.93692,-4.33923 -0.18636,0.0375 -18.25927,34.13909 -18.15045,34.2479 0.0281,0.0281 1.01777,0.29412 2.19931,0.59122 27.7058,6.9665 54.90117,24.62329 64.26815,41.72656 0.78581,1.43479 0.75874,1.45508 1.13318,-0.84908 z m -230.94312,-6.99052 c 6.75055,-0.44537 12.49955,-0.86322 12.77554,-0.92855 0.27598,-0.0653 0.52588,-0.0947 0.55533,-0.0652 0.11309,0.1131 4.01826,-0.23725 5.48655,-0.49222 5.17418,-0.89847 6.63276,-1.7751 10.71828,-6.44183 5.64778,-6.45124 8.92592,-8.52868 13.72758,-8.6995 0.93239,-0.0332 11.24641,-0.39194 22.92005,-0.79725 11.67362,-0.40531 21.62146,-0.77205 22.10631,-0.81497 4.29635,-0.38032 8.18341,1.67593 14.08748,7.45225 4.82574,4.72131 5.84832,5.31271 10.36971,5.99718 1.74966,0.26488 1.01938,0.25539 25.62595,0.33296 l 17.60177,0.0556 4.26725,-8.37878 4.26726,-8.37878 -2.93691,-5.11556 c -3.96615,-6.90834 -3.85526,-6.56934 -2.81793,-8.61508 1.05189,-2.07442 19.23526,-36.54797 19.63752,-37.23043 1.09692,-1.86104 2.68743,-1.65443 9.0797,1.17947 1.03032,0.45678 1.89931,0.8305 1.93109,0.8305 0.0792,0 1.14578,-2.13271 1.14578,-2.29113 0,-0.30356 -12.6274,-23.344351 -17.2889,-31.546455 -8.16013,-14.358122 -9.63073,-16.048334 -15.87057,-18.240639 -5.90253,-2.07379 -4.37236,-2.078817 -57.84261,0.189999 -91.12032,3.866359 -89.14616,3.75389 -94.09222,5.360552 -6.03196,1.959408 -7.59754,3.449245 -13.54905,12.893521 -3.44138,5.461028 -11.52389,18.275702 -14.79837,23.462542 -14.494559,22.95964 -15.34993,24.70931 -15.351503,31.40155 -0.0011,5.78332 0.940128,8.73456 5.081968,15.93038 1.652981,2.87178 5.040615,8.76115 7.528085,13.08748 2.48746,4.32633 5.17362,8.99509 5.96924,10.37505 0.79561,1.37994 2.47306,4.29357 3.72765,6.47471 l 2.28109,3.96571 0.69156,-0.0716 c 0.38036,-0.0394 6.21475,-0.43597 12.96532,-0.88135 z m 210.26152,-57.39582 c -3.61535,-5.75338 -9.25415,-12.58772 -15.18105,-18.39971 -3.49528,-3.42752 -3.38962,-3.42294 -1.58126,-0.0686 1.85571,3.44222 1.85258,3.40983 0.57336,5.91863 -0.48121,0.94375 -0.84547,1.74172 -0.80947,1.77325 0.036,0.0316 1.04193,0.59433 2.2354,1.25069 4.55287,2.50384 9.85656,6.00701 13.8334,9.13714 0.67133,0.52839 1.23662,0.96167 1.2562,0.96284 0.0195,0.001 -0.12738,-0.25726 -0.32658,-0.57428 z m 1.4966,-9.13857 c 29.27378,-19.27612 48.38543,-65.551823 41.90335,-101.462099 l -0.0797,-0.442038 -0.78288,1.120146 c -5.95196,8.516096 -13.16286,12.831855 -32.00692,19.156286 -12.98416,4.357732 -17.42464,6.127575 -24.4797,9.756873 -10.86675,5.590131 -18.99089,11.728738 -24.83434,18.764846 l -1.49716,1.80274 2.16405,3.622123 c 2.22505,3.724225 6.11803,10.514952 8.56854,14.946525 0.76306,1.37995 2.22776,4.034742 3.25489,5.899539 1.02713,1.864797 2.0203,3.653526 2.20707,3.974953 0.23462,0.4038 1.05715,1.16357 2.66145,2.458386 7.98634,6.4457 14.60824,13.14933 20.00603,20.25295 1.19656,1.57469 0.78199,1.55354 2.91536,0.14877 z M 208.55188,62.169916 c 3.89566,-0.16843 7.1091,-0.333118 7.141,-0.365974 0.49767,-0.512693 -2.94406,-11.878644 -5.16957,-17.071873 l -0.25794,-0.601925 -0.51684,1.415655 c -1.55833,4.268356 -4.02344,8.896119 -7.65328,14.367515 -0.866,1.305358 -1.59516,2.41915 -1.62034,2.475094 -0.0603,0.134112 -0.10864,0.135419 8.07697,-0.218492 z"
       id="path11"
       inkscape:label="Outlines" /></g><metadata
     id="metadata1"><rdf:RDF><cc:Work
         rdf:about=""><dc:title>WiVRn Wyvern yippe</dc:title><dc:date>1/25/25</dc:date><dc:creator><cc:Agent><dc:title>Yaya, y.a.y.a on Discord.</dc:title></cc:Agent></dc:creator><cc:license
           rdf:resource="http://creativecommons.org/licenses/by-sa/4.0/" /></cc:Work><cc:License
         rdf:about="http://creativecommons.org/licenses/by-sa/4.0/"><cc:permits
           rdf:resource="http://creativecommons.org/ns#Reproduction" /><cc:permits
           rdf:resource="http://creativecommons.org/ns#Distribution" /><cc:requires
           rdf:resource="http://creativecommons.org/ns#Notice" /><cc:requires
           rdf:resource="http://creativecommons.org/ns#Attribution" /><cc:permits
           rdf:resource="http://creativecommons.org/ns#DerivativeWorks" /><cc:requires
           rdf:resource="http://creativecommons.org/ns#ShareAlike" /></cc:License></rdf:RDF></metadata></svg>
